<?xml version="1.0" encoding="UTF-8" standalone="no"?>
<!DOCTYPE svg PUBLIC "-//W3C//DTD SVG 1.1//EN"
 "http://www.w3.org/Graphics/SVG/1.1/DTD/svg11.dtd">
<!-- Generated by graphviz version 2.43.0 (0)
 -->
<!-- Title: eFlex::SubModule::setupDeadtime Pages: 1 -->
<svg width="544pt" height="66pt"
 viewBox="0.00 0.00 544.00 66.00" xmlns="http://www.w3.org/2000/svg" xmlns:xlink="http://www.w3.org/1999/xlink">
<g id="graph0" class="graph" transform="scale(1 1) rotate(0) translate(4 62)">
<title>eFlex::SubModule::setupDeadtime</title>
<polygon fill="white" stroke="transparent" points="-4,4 -4,-62 540,-62 540,4 -4,4"/>
<!-- Node1 -->
<g id="node1" class="node">
<title>Node1</title>
<g id="a_node1"><a xlink:title="Setting the deadtime before calling begin.">
<polygon fill="#bfbfbf" stroke="black" points="0,-19.5 0,-38.5 185,-38.5 185,-19.5 0,-19.5"/>
<text text-anchor="middle" x="92.5" y="-26.5" font-family="Helvetica,sans-Serif" font-size="10.00">eFlex::SubModule::setupDeadtime</text>
</a>
</g>
</g>
<!-- Node2 -->
<g id="node2" class="node">
<title>Node2</title>
<g id="a_node2"><a xlink:href="a00854.html#a638663998d9d1bd6d5d52dee191a32c1" target="_top" xlink:title="PWM main counter clock in Hz.">
<polygon fill="white" stroke="black" points="221,-38.5 221,-57.5 359,-57.5 359,-38.5 221,-38.5"/>
<text text-anchor="middle" x="290" y="-45.5" font-family="Helvetica,sans-Serif" font-size="10.00">eFlex::Timer::srcClockHz</text>
</a>
</g>
</g>
<!-- Node1&#45;&gt;Node2 -->
<g id="edge1" class="edge">
<title>Node1&#45;&gt;Node2</title>
<path fill="none" stroke="midnightblue" d="M185.24,-37.92C193.77,-38.75 202.37,-39.58 210.76,-40.4"/>
<polygon fill="midnightblue" stroke="midnightblue" points="210.6,-43.9 220.89,-41.38 211.27,-36.93 210.6,-43.9"/>
</g>
<!-- Node4 -->
<g id="node4" class="node">
<title>Node4</title>
<g id="a_node4"><a xlink:href="a00850.html#aa40c1df60470ec679779e533497c13e8" target="_top" xlink:title="Returns the parent PWM module.">
<polygon fill="white" stroke="black" points="222,-0.5 222,-19.5 358,-19.5 358,-0.5 222,-0.5"/>
<text text-anchor="middle" x="290" y="-7.5" font-family="Helvetica,sans-Serif" font-size="10.00">eFlex::SubModule::timer</text>
</a>
</g>
</g>
<!-- Node1&#45;&gt;Node4 -->
<g id="edge3" class="edge">
<title>Node1&#45;&gt;Node4</title>
<path fill="none" stroke="midnightblue" d="M185.24,-20.08C194.08,-19.22 202.99,-18.36 211.67,-17.52"/>
<polygon fill="midnightblue" stroke="midnightblue" points="212.13,-20.99 221.74,-16.54 211.45,-14.02 212.13,-20.99"/>
</g>
<!-- Node3 -->
<g id="node3" class="node">
<title>Node3</title>
<g id="a_node3"><a xlink:href="a00854.html#a10e405e49abacbd9b5061693027dc052" target="_top" xlink:title="Bus clock in Hz.">
<polygon fill="white" stroke="black" points="395,-38.5 395,-57.5 536,-57.5 536,-38.5 395,-38.5"/>
<text text-anchor="middle" x="465.5" y="-45.5" font-family="Helvetica,sans-Serif" font-size="10.00">eFlex::Timer::busClockHz</text>
</a>
</g>
</g>
<!-- Node2&#45;&gt;Node3 -->
<g id="edge2" class="edge">
<title>Node2&#45;&gt;Node3</title>
<path fill="none" stroke="midnightblue" d="M359.07,-48C367.53,-48 376.24,-48 384.86,-48"/>
<polygon fill="midnightblue" stroke="midnightblue" points="384.91,-51.5 394.91,-48 384.91,-44.5 384.91,-51.5"/>
</g>
</g>
</svg>
