<?xml version="1.0" encoding="UTF-8" standalone="no"?>
<!DOCTYPE svg PUBLIC "-//W3C//DTD SVG 1.1//EN"
 "http://www.w3.org/Graphics/SVG/1.1/DTD/svg11.dtd">
<!-- Generated by graphviz version 2.43.0 (0)
 -->
<!-- Title: eFlex::SubModule::setupDeadtime Pages: 1 -->
<svg width="765pt" height="66pt"
 viewBox="0.00 0.00 765.00 66.00" xmlns="http://www.w3.org/2000/svg" xmlns:xlink="http://www.w3.org/1999/xlink">
<g id="graph0" class="graph" transform="scale(1 1) rotate(0) translate(4 62)">
<title>eFlex::SubModule::setupDeadtime</title>
<polygon fill="white" stroke="transparent" points="-4,4 -4,-62 761,-62 761,4 -4,4"/>
<!-- Node1 -->
<g id="node1" class="node">
<title>Node1</title>
<g id="a_node1"><a xlink:title="Setting the deadtime for all channels before calling begin.">
<polygon fill="#bfbfbf" stroke="black" points="0,-19.5 0,-38.5 185,-38.5 185,-19.5 0,-19.5"/>
<text text-anchor="middle" x="92.5" y="-26.5" font-family="Helvetica,sans-Serif" font-size="10.00">eFlex::SubModule::setupDeadtime</text>
</a>
</g>
</g>
<!-- Node2 -->
<g id="node2" class="node">
<title>Node2</title>
<g id="a_node2"><a xlink:href="a00850.html#a73102203b817164b66e4be6aa2d487ae" target="_top" xlink:title="Setting the deadtime before calling begin.">
<polygon fill="white" stroke="black" points="221,-19.5 221,-38.5 406,-38.5 406,-19.5 221,-19.5"/>
<text text-anchor="middle" x="313.5" y="-26.5" font-family="Helvetica,sans-Serif" font-size="10.00">eFlex::SubModule::setupDeadtime</text>
</a>
</g>
</g>
<!-- Node1&#45;&gt;Node2 -->
<g id="edge1" class="edge">
<title>Node1&#45;&gt;Node2</title>
<path fill="none" stroke="midnightblue" d="M185.11,-29C193.62,-29 202.27,-29 210.86,-29"/>
<polygon fill="midnightblue" stroke="midnightblue" points="210.91,-32.5 220.91,-29 210.91,-25.5 210.91,-32.5"/>
</g>
<!-- Node3 -->
<g id="node3" class="node">
<title>Node3</title>
<g id="a_node3"><a xlink:href="a00854.html#a638663998d9d1bd6d5d52dee191a32c1" target="_top" xlink:title="PWM main counter clock in Hz.">
<polygon fill="white" stroke="black" points="442,-38.5 442,-57.5 580,-57.5 580,-38.5 442,-38.5"/>
<text text-anchor="middle" x="511" y="-45.5" font-family="Helvetica,sans-Serif" font-size="10.00">eFlex::Timer::srcClockHz</text>
</a>
</g>
</g>
<!-- Node2&#45;&gt;Node3 -->
<g id="edge2" class="edge">
<title>Node2&#45;&gt;Node3</title>
<path fill="none" stroke="midnightblue" d="M406.24,-37.92C414.77,-38.75 423.37,-39.58 431.76,-40.4"/>
<polygon fill="midnightblue" stroke="midnightblue" points="431.6,-43.9 441.89,-41.38 432.27,-36.93 431.6,-43.9"/>
</g>
<!-- Node5 -->
<g id="node5" class="node">
<title>Node5</title>
<g id="a_node5"><a xlink:href="a00850.html#aa40c1df60470ec679779e533497c13e8" target="_top" xlink:title="Returns the parent PWM module.">
<polygon fill="white" stroke="black" points="443,-0.5 443,-19.5 579,-19.5 579,-0.5 443,-0.5"/>
<text text-anchor="middle" x="511" y="-7.5" font-family="Helvetica,sans-Serif" font-size="10.00">eFlex::SubModule::timer</text>
</a>
</g>
</g>
<!-- Node2&#45;&gt;Node5 -->
<g id="edge4" class="edge">
<title>Node2&#45;&gt;Node5</title>
<path fill="none" stroke="midnightblue" d="M406.24,-20.08C415.08,-19.22 423.99,-18.36 432.67,-17.52"/>
<polygon fill="midnightblue" stroke="midnightblue" points="433.13,-20.99 442.74,-16.54 432.45,-14.02 433.13,-20.99"/>
</g>
<!-- Node4 -->
<g id="node4" class="node">
<title>Node4</title>
<g id="a_node4"><a xlink:href="a00854.html#a10e405e49abacbd9b5061693027dc052" target="_top" xlink:title="Bus clock in Hz.">
<polygon fill="white" stroke="black" points="616,-38.5 616,-57.5 757,-57.5 757,-38.5 616,-38.5"/>
<text text-anchor="middle" x="686.5" y="-45.5" font-family="Helvetica,sans-Serif" font-size="10.00">eFlex::Timer::busClockHz</text>
</a>
</g>
</g>
<!-- Node3&#45;&gt;Node4 -->
<g id="edge3" class="edge">
<title>Node3&#45;&gt;Node4</title>
<path fill="none" stroke="midnightblue" d="M580.07,-48C588.53,-48 597.24,-48 605.86,-48"/>
<polygon fill="midnightblue" stroke="midnightblue" points="605.91,-51.5 615.91,-48 605.91,-44.5 605.91,-51.5"/>
</g>
</g>
</svg>
