<?xml version="1.0" encoding="UTF-8" standalone="no"?>
<!DOCTYPE svg PUBLIC "-//W3C//DTD SVG 1.1//EN"
 "http://www.w3.org/Graphics/SVG/1.1/DTD/svg11.dtd">
<!-- Generated by graphviz version 2.43.0 (0)
 -->
<!-- Title: eFlex::SubModule::setPwmMode Pages: 1 -->
<svg width="513pt" height="78pt"
 viewBox="0.00 0.00 513.00 77.50" xmlns="http://www.w3.org/2000/svg" xmlns:xlink="http://www.w3.org/1999/xlink">
<g id="graph0" class="graph" transform="scale(1 1) rotate(0) translate(4 73.5)">
<title>eFlex::SubModule::setPwmMode</title>
<polygon fill="white" stroke="transparent" points="-4,4 -4,-73.5 509,-73.5 509,4 -4,4"/>
<!-- Node1 -->
<g id="node1" class="node">
<title>Node1</title>
<g id="a_node1"><a xlink:title="Set the Pwm operation mode.">
<polygon fill="#bfbfbf" stroke="black" points="0,-28 0,-47 176,-47 176,-28 0,-28"/>
<text text-anchor="middle" x="88" y="-35" font-family="Helvetica,sans-Serif" font-size="10.00">eFlex::SubModule::setPwmMode</text>
</a>
</g>
</g>
<!-- Node2 -->
<g id="node2" class="node">
<title>Node2</title>
<g id="a_node2"><a xlink:href="a00846.html#abd22d035264cf576d23b6fddf9a544ce" target="_top" xlink:title="Set the PWM operation mode.">
<polygon fill="white" stroke="black" points="219.5,-50 219.5,-69 347.5,-69 347.5,-50 219.5,-50"/>
<text text-anchor="middle" x="283.5" y="-57" font-family="Helvetica,sans-Serif" font-size="10.00">eFlex::Config::setMode</text>
</a>
</g>
</g>
<!-- Node1&#45;&gt;Node2 -->
<g id="edge1" class="edge">
<title>Node1&#45;&gt;Node2</title>
<path fill="none" stroke="midnightblue" d="M172.75,-47.02C184.83,-48.4 197.2,-49.8 209.06,-51.15"/>
<polygon fill="midnightblue" stroke="midnightblue" points="209.01,-54.67 219.34,-52.32 209.8,-47.71 209.01,-54.67"/>
</g>
<!-- Node4 -->
<g id="node4" class="node">
<title>Node4</title>
<g id="a_node4"><a xlink:href="a00850.html#aa4810cdf84c9f232ca3233b43fe1b7a1" target="_top" xlink:title="Update PWM signals for a PWM submodule.">
<polygon fill="white" stroke="black" points="212,-0.5 212,-30.5 355,-30.5 355,-0.5 212,-0.5"/>
<text text-anchor="start" x="220" y="-18.5" font-family="Helvetica,sans-Serif" font-size="10.00">eFlex::SubModule::update</text>
<text text-anchor="middle" x="283.5" y="-7.5" font-family="Helvetica,sans-Serif" font-size="10.00">Setting</text>
</a>
</g>
</g>
<!-- Node1&#45;&gt;Node4 -->
<g id="edge3" class="edge">
<title>Node1&#45;&gt;Node4</title>
<path fill="none" stroke="midnightblue" d="M172.75,-27.98C182.45,-26.88 192.33,-25.75 201.99,-24.65"/>
<polygon fill="midnightblue" stroke="midnightblue" points="202.42,-28.13 211.96,-23.52 201.63,-21.17 202.42,-28.13"/>
</g>
<!-- Node3 -->
<g id="node3" class="node">
<title>Node3</title>
<g id="a_node3"><a xlink:href="a00846.html#aedec21c9b22a2f485ba5fef4035a21e5" target="_top" xlink:title="PWM operation mode, default CenterAligned.">
<polygon fill="white" stroke="black" points="391,-50 391,-69 505,-69 505,-50 391,-50"/>
<text text-anchor="middle" x="448" y="-57" font-family="Helvetica,sans-Serif" font-size="10.00">eFlex::Config::mode</text>
</a>
</g>
</g>
<!-- Node2&#45;&gt;Node3 -->
<g id="edge2" class="edge">
<title>Node2&#45;&gt;Node3</title>
<path fill="none" stroke="midnightblue" d="M347.79,-59.5C358.53,-59.5 369.71,-59.5 380.52,-59.5"/>
<polygon fill="midnightblue" stroke="midnightblue" points="380.76,-63 390.76,-59.5 380.76,-56 380.76,-63"/>
</g>
</g>
</svg>
