<?xml version="1.0" encoding="UTF-8" standalone="no"?>
<!DOCTYPE svg PUBLIC "-//W3C//DTD SVG 1.1//EN"
 "http://www.w3.org/Graphics/SVG/1.1/DTD/svg11.dtd">
<!-- Generated by graphviz version 2.43.0 (0)
 -->
<!-- Title: eFlex::SubModule::start Pages: 1 -->
<svg width="313pt" height="104pt"
 viewBox="0.00 0.00 313.00 104.00" xmlns="http://www.w3.org/2000/svg" xmlns:xlink="http://www.w3.org/1999/xlink">
<g id="graph0" class="graph" transform="scale(1 1) rotate(0) translate(4 100)">
<title>eFlex::SubModule::start</title>
<polygon fill="white" stroke="transparent" points="-4,4 -4,-100 309,-100 309,4 -4,4"/>
<!-- Node1 -->
<g id="node1" class="node">
<title>Node1</title>
<g id="a_node1"><a xlink:title="Starts the PWM counter for this submodule.">
<polygon fill="#bfbfbf" stroke="black" points="0,-38.5 0,-57.5 132,-57.5 132,-38.5 0,-38.5"/>
<text text-anchor="middle" x="66" y="-45.5" font-family="Helvetica,sans-Serif" font-size="10.00">eFlex::SubModule::start</text>
</a>
</g>
</g>
<!-- Node2 -->
<g id="node2" class="node">
<title>Node2</title>
<g id="a_node2"><a xlink:href="a00850.html#ac4375d862ccecca93b10c1bcc57dc9f7" target="_top" xlink:title="Returns the Submodule index (0 for Submodule0...)">
<polygon fill="white" stroke="black" points="168,-76.5 168,-95.5 305,-95.5 305,-76.5 168,-76.5"/>
<text text-anchor="middle" x="236.5" y="-83.5" font-family="Helvetica,sans-Serif" font-size="10.00">eFlex::SubModule::index</text>
</a>
</g>
</g>
<!-- Node1&#45;&gt;Node2 -->
<g id="edge1" class="edge">
<title>Node1&#45;&gt;Node2</title>
<path fill="none" stroke="midnightblue" d="M109.52,-57.59C131.96,-62.65 159.67,-68.9 183.39,-74.25"/>
<polygon fill="midnightblue" stroke="midnightblue" points="182.76,-77.69 193.29,-76.48 184.3,-70.87 182.76,-77.69"/>
</g>
<!-- Node3 -->
<g id="node3" class="node">
<title>Node3</title>
<g id="a_node3"><a xlink:href="a00854.html#a7df19c5a8ae37e08711e94b12ec8efa3" target="_top" xlink:title="Starts or stops the PWM counter for a single or multiple submodules.">
<polygon fill="white" stroke="black" points="183,-38.5 183,-57.5 290,-57.5 290,-38.5 183,-38.5"/>
<text text-anchor="middle" x="236.5" y="-45.5" font-family="Helvetica,sans-Serif" font-size="10.00">eFlex::Timer::start</text>
</a>
</g>
</g>
<!-- Node1&#45;&gt;Node3 -->
<g id="edge2" class="edge">
<title>Node1&#45;&gt;Node3</title>
<path fill="none" stroke="midnightblue" d="M132.15,-48C145.37,-48 159.26,-48 172.42,-48"/>
<polygon fill="midnightblue" stroke="midnightblue" points="172.78,-51.5 182.78,-48 172.78,-44.5 172.78,-51.5"/>
</g>
<!-- Node4 -->
<g id="node4" class="node">
<title>Node4</title>
<g id="a_node4"><a xlink:href="a00850.html#aa40c1df60470ec679779e533497c13e8" target="_top" xlink:title="Returns the parent PWM module.">
<polygon fill="white" stroke="black" points="168.5,-0.5 168.5,-19.5 304.5,-19.5 304.5,-0.5 168.5,-0.5"/>
<text text-anchor="middle" x="236.5" y="-7.5" font-family="Helvetica,sans-Serif" font-size="10.00">eFlex::SubModule::timer</text>
</a>
</g>
</g>
<!-- Node1&#45;&gt;Node4 -->
<g id="edge3" class="edge">
<title>Node1&#45;&gt;Node4</title>
<path fill="none" stroke="midnightblue" d="M109.52,-38.41C131.96,-33.35 159.67,-27.1 183.39,-21.75"/>
<polygon fill="midnightblue" stroke="midnightblue" points="184.3,-25.13 193.29,-19.52 182.76,-18.31 184.3,-25.13"/>
</g>
</g>
</svg>
