<?xml version="1.0" encoding="UTF-8" standalone="no"?>
<!DOCTYPE svg PUBLIC "-//W3C//DTD SVG 1.1//EN"
 "http://www.w3.org/Graphics/SVG/1.1/DTD/svg11.dtd">
<!-- Generated by graphviz version 2.43.0 (0)
 -->
<!-- Title: eFlex::SubModule::updateDutyCyclePercent Pages: 1 -->
<svg width="345pt" height="78pt"
 viewBox="0.00 0.00 345.00 77.50" xmlns="http://www.w3.org/2000/svg" xmlns:xlink="http://www.w3.org/1999/xlink">
<g id="graph0" class="graph" transform="scale(1 1) rotate(0) translate(4 73.5)">
<title>eFlex::SubModule::updateDutyCyclePercent</title>
<polygon fill="white" stroke="transparent" points="-4,4 -4,-73.5 341,-73.5 341,4 -4,4"/>
<!-- Node1 -->
<g id="node1" class="node">
<title>Node1</title>
<g id="a_node1"><a xlink:title="Updates the PWM signal&#39;s dutycycle.">
<polygon fill="#bfbfbf" stroke="black" points="0,-17 0,-47 143,-47 143,-17 0,-17"/>
<text text-anchor="start" x="8" y="-35" font-family="Helvetica,sans-Serif" font-size="10.00">eFlex::SubModule::update</text>
<text text-anchor="middle" x="71.5" y="-24" font-family="Helvetica,sans-Serif" font-size="10.00">DutyCyclePercent</text>
</a>
</g>
</g>
<!-- Node2 -->
<g id="node2" class="node">
<title>Node2</title>
<g id="a_node2"><a xlink:href="a00850.html#a2e9e7cd9d39447df4fd73f61d8069683" target="_top" xlink:title="Get the dutycycle value.">
<polygon fill="white" stroke="black" points="179,-39 179,-69 337,-69 337,-39 179,-39"/>
<text text-anchor="start" x="187" y="-57" font-family="Helvetica,sans-Serif" font-size="10.00">eFlex::SubModule::dutyCycle</text>
<text text-anchor="middle" x="258" y="-46" font-family="Helvetica,sans-Serif" font-size="10.00">Percent</text>
</a>
</g>
</g>
<!-- Node1&#45;&gt;Node2 -->
<g id="edge1" class="edge">
<title>Node1&#45;&gt;Node2</title>
<path fill="none" stroke="midnightblue" d="M143.04,-40.41C151.45,-41.41 160.11,-42.45 168.73,-43.47"/>
<polygon fill="midnightblue" stroke="midnightblue" points="168.46,-46.97 178.81,-44.68 169.29,-40.02 168.46,-46.97"/>
</g>
<!-- Node3 -->
<g id="node3" class="node">
<title>Node3</title>
<g id="a_node3"><a xlink:href="a00030.html#a000f8ca5673ac1dd49baf8e47c7ed42f" target="_top" xlink:title="Convert duty cycle to reload value.">
<polygon fill="white" stroke="black" points="204.5,-0.5 204.5,-19.5 311.5,-19.5 311.5,-0.5 204.5,-0.5"/>
<text text-anchor="middle" x="258" y="-7.5" font-family="Helvetica,sans-Serif" font-size="10.00">eFlex::reloadValue</text>
</a>
</g>
</g>
<!-- Node1&#45;&gt;Node3 -->
<g id="edge2" class="edge">
<title>Node1&#45;&gt;Node3</title>
<path fill="none" stroke="midnightblue" d="M143.04,-23.59C159.89,-21.58 177.76,-19.45 194.23,-17.48"/>
<polygon fill="midnightblue" stroke="midnightblue" points="194.77,-20.94 204.29,-16.29 193.94,-13.99 194.77,-20.94"/>
</g>
</g>
</svg>
