<?xml version="1.0" encoding="UTF-8" standalone="no"?>
<!DOCTYPE svg PUBLIC "-//W3C//DTD SVG 1.1//EN"
 "http://www.w3.org/Graphics/SVG/1.1/DTD/svg11.dtd">
<!-- Generated by graphviz version 2.43.0 (0)
 -->
<!-- Title: eFlex::SubModule::setPwmFrequency Pages: 1 -->
<svg width="532pt" height="78pt"
 viewBox="0.00 0.00 532.00 77.50" xmlns="http://www.w3.org/2000/svg" xmlns:xlink="http://www.w3.org/1999/xlink">
<g id="graph0" class="graph" transform="scale(1 1) rotate(0) translate(4 73.5)">
<title>eFlex::SubModule::setPwmFrequency</title>
<polygon fill="white" stroke="transparent" points="-4,4 -4,-73.5 528,-73.5 528,4 -4,4"/>
<!-- Node1 -->
<g id="node1" class="node">
<title>Node1</title>
<g id="a_node1"><a xlink:title="Set the Pwm Frequency.">
<polygon fill="#bfbfbf" stroke="black" points="0,-22.5 0,-52.5 149,-52.5 149,-22.5 0,-22.5"/>
<text text-anchor="start" x="8" y="-40.5" font-family="Helvetica,sans-Serif" font-size="10.00">eFlex::SubModule::setPwm</text>
<text text-anchor="middle" x="74.5" y="-29.5" font-family="Helvetica,sans-Serif" font-size="10.00">Frequency</text>
</a>
</g>
</g>
<!-- Node2 -->
<g id="node2" class="node">
<title>Node2</title>
<g id="a_node2"><a xlink:href="a00845.html#a3d4339759f62349d27251ce306df71ba" target="_top" xlink:title="Set the PWM signal frequency in Hz.">
<polygon fill="white" stroke="black" points="185,-50 185,-69 344,-69 344,-50 185,-50"/>
<text text-anchor="middle" x="264.5" y="-57" font-family="Helvetica,sans-Serif" font-size="10.00">eFlex::Config::setPwmFreqHz</text>
</a>
</g>
</g>
<!-- Node1&#45;&gt;Node2 -->
<g id="edge1" class="edge">
<title>Node1&#45;&gt;Node2</title>
<path fill="none" stroke="midnightblue" d="M149.26,-46.13C157.69,-47.12 166.35,-48.13 174.94,-49.14"/>
<polygon fill="midnightblue" stroke="midnightblue" points="174.65,-52.63 184.99,-50.31 175.46,-45.67 174.65,-52.63"/>
</g>
<!-- Node4 -->
<g id="node4" class="node">
<title>Node4</title>
<g id="a_node4"><a xlink:href="a00853.html#af84c049fb898b39e8664ee0cad1eb9b9" target="_top" xlink:title="Update PWM signals for a PWM submodule.">
<polygon fill="white" stroke="black" points="193,-0.5 193,-30.5 336,-30.5 336,-0.5 193,-0.5"/>
<text text-anchor="start" x="201" y="-18.5" font-family="Helvetica,sans-Serif" font-size="10.00">eFlex::SubModule::update</text>
<text text-anchor="middle" x="264.5" y="-7.5" font-family="Helvetica,sans-Serif" font-size="10.00">Setup</text>
</a>
</g>
</g>
<!-- Node1&#45;&gt;Node4 -->
<g id="edge3" class="edge">
<title>Node1&#45;&gt;Node4</title>
<path fill="none" stroke="midnightblue" d="M149.26,-28.87C160.21,-27.59 171.54,-26.26 182.63,-24.96"/>
<polygon fill="midnightblue" stroke="midnightblue" points="183.19,-28.42 192.72,-23.78 182.38,-21.47 183.19,-28.42"/>
</g>
<!-- Node3 -->
<g id="node3" class="node">
<title>Node3</title>
<g id="a_node3"><a xlink:href="a00845.html#a374cc186c604229736e1a5123df994d5" target="_top" xlink:title="PWM signal frequency in Hz, default 5000.">
<polygon fill="white" stroke="black" points="380,-50 380,-69 524,-69 524,-50 380,-50"/>
<text text-anchor="middle" x="452" y="-57" font-family="Helvetica,sans-Serif" font-size="10.00">eFlex::Config::pwmFreqHz</text>
</a>
</g>
</g>
<!-- Node2&#45;&gt;Node3 -->
<g id="edge2" class="edge">
<title>Node2&#45;&gt;Node3</title>
<path fill="none" stroke="midnightblue" d="M344.17,-59.5C352.59,-59.5 361.18,-59.5 369.63,-59.5"/>
<polygon fill="midnightblue" stroke="midnightblue" points="369.86,-63 379.86,-59.5 369.86,-56 369.86,-63"/>
</g>
</g>
</svg>
