<?xml version="1.0" encoding="UTF-8" standalone="no"?>
<!DOCTYPE svg PUBLIC "-//W3C//DTD SVG 1.1//EN"
 "http://www.w3.org/Graphics/SVG/1.1/DTD/svg11.dtd">
<!-- Generated by graphviz version 2.43.0 (0)
 -->
<!-- Title: _pwm_fault_param Pages: 1 -->
<svg width="484pt" height="182pt"
 viewBox="0.00 0.00 483.50 182.00" xmlns="http://www.w3.org/2000/svg" xmlns:xlink="http://www.w3.org/1999/xlink">
<g id="graph0" class="graph" transform="scale(1 1) rotate(0) translate(4 178)">
<title>_pwm_fault_param</title>
<polygon fill="white" stroke="transparent" points="-4,4 -4,-178 479.5,-178 479.5,4 -4,4"/>
<!-- Node1 -->
<g id="node1" class="node">
<title>Node1</title>
<g id="a_node1"><a xlink:title="Structure is used to hold the parameters to configure a PWM fault.">
<polygon fill="#bfbfbf" stroke="black" points="167.5,-0.5 167.5,-57.5 277.5,-57.5 277.5,-0.5 167.5,-0.5"/>
<text text-anchor="middle" x="222.5" y="-45.5" font-family="Helvetica,sans-Serif" font-size="10.00">_pwm_fault_param</text>
<polyline fill="none" stroke="black" points="167.5,-38.5 277.5,-38.5 "/>
<text text-anchor="middle" x="222.5" y="-26.5" font-family="Helvetica,sans-Serif" font-size="10.00"> </text>
<polyline fill="none" stroke="black" points="167.5,-19.5 277.5,-19.5 "/>
<text text-anchor="middle" x="222.5" y="-7.5" font-family="Helvetica,sans-Serif" font-size="10.00"> </text>
</a>
</g>
</g>
<!-- Node2 -->
<g id="node2" class="node">
<title>Node2</title>
<g id="a_node2"><a xlink:title=" ">
<polygon fill="white" stroke="#bfbfbf" points="0,-116.5 0,-173.5 185,-173.5 185,-116.5 0,-116.5"/>
<text text-anchor="middle" x="92.5" y="-161.5" font-family="Helvetica,sans-Serif" font-size="10.00">enum _pwm_fault_recovery_mode</text>
<polyline fill="none" stroke="#bfbfbf" points="0,-154.5 185,-154.5 "/>
<text text-anchor="middle" x="92.5" y="-142.5" font-family="Helvetica,sans-Serif" font-size="10.00"> </text>
<polyline fill="none" stroke="#bfbfbf" points="0,-135.5 185,-135.5 "/>
<text text-anchor="middle" x="92.5" y="-123.5" font-family="Helvetica,sans-Serif" font-size="10.00"> </text>
</a>
</g>
</g>
<!-- Node2&#45;&gt;Node1 -->
<g id="edge1" class="edge">
<title>Node2&#45;&gt;Node1</title>
<path fill="none" stroke="#404040" d="M108.96,-116.4C117.78,-103.13 129.5,-87.62 142.5,-76 147.09,-71.9 152.1,-68 157.3,-64.32"/>
<polygon fill="none" stroke="#404040" points="157.49,-64.19 160.27,-57.54 167.48,-57.55 164.7,-64.2 157.49,-64.19"/>
<text text-anchor="middle" x="180.5" y="-84.5" font-family="Helvetica,sans-Serif" font-size="10.00"> +recoverMode</text>
</g>
<!-- Node3 -->
<g id="node3" class="node">
<title>Node3</title>
<g id="a_node3"><a xlink:title=" ">
<polygon fill="white" stroke="#bfbfbf" points="203.5,-116.5 203.5,-173.5 241.5,-173.5 241.5,-116.5 203.5,-116.5"/>
<text text-anchor="middle" x="222.5" y="-161.5" font-family="Helvetica,sans-Serif" font-size="10.00">bool</text>
<polyline fill="none" stroke="#bfbfbf" points="203.5,-154.5 241.5,-154.5 "/>
<text text-anchor="middle" x="222.5" y="-142.5" font-family="Helvetica,sans-Serif" font-size="10.00"> </text>
<polyline fill="none" stroke="#bfbfbf" points="203.5,-135.5 241.5,-135.5 "/>
<text text-anchor="middle" x="222.5" y="-123.5" font-family="Helvetica,sans-Serif" font-size="10.00"> </text>
</a>
</g>
</g>
<!-- Node3&#45;&gt;Node1 -->
<g id="edge2" class="edge">
<title>Node3&#45;&gt;Node1</title>
<path fill="none" stroke="#404040" d="M222.5,-116.4C222.5,-102.5 222.5,-85.39 222.5,-70.07"/>
<polygon fill="none" stroke="#404040" points="222.5,-69.74 218.5,-63.74 222.5,-57.74 226.5,-63.74 222.5,-69.74"/>
<text text-anchor="middle" x="291" y="-90" font-family="Helvetica,sans-Serif" font-size="10.00"> +enableCombinationalPath</text>
<text text-anchor="middle" x="291" y="-79" font-family="Helvetica,sans-Serif" font-size="10.00">+faultLevel</text>
</g>
<!-- Node4 -->
<g id="node4" class="node">
<title>Node4</title>
<g id="a_node4"><a xlink:title=" ">
<polygon fill="white" stroke="#bfbfbf" points="315.5,-116.5 315.5,-173.5 449.5,-173.5 449.5,-116.5 315.5,-116.5"/>
<text text-anchor="middle" x="382.5" y="-161.5" font-family="Helvetica,sans-Serif" font-size="10.00">enum _pwm_fault_clear</text>
<polyline fill="none" stroke="#bfbfbf" points="315.5,-154.5 449.5,-154.5 "/>
<text text-anchor="middle" x="382.5" y="-142.5" font-family="Helvetica,sans-Serif" font-size="10.00"> </text>
<polyline fill="none" stroke="#bfbfbf" points="315.5,-135.5 449.5,-135.5 "/>
<text text-anchor="middle" x="382.5" y="-123.5" font-family="Helvetica,sans-Serif" font-size="10.00"> </text>
</a>
</g>
</g>
<!-- Node4&#45;&gt;Node1 -->
<g id="edge3" class="edge">
<title>Node4&#45;&gt;Node1</title>
<path fill="none" stroke="#404040" d="M379.49,-116.45C376.65,-102.7 371.16,-86.75 360.5,-76 341.62,-56.95 314.66,-45.79 289.57,-39.26"/>
<polygon fill="none" stroke="#404040" points="289.51,-39.24 282.75,-41.75 277.83,-36.48 284.59,-33.97 289.51,-39.24"/>
<text text-anchor="middle" x="424.5" y="-84.5" font-family="Helvetica,sans-Serif" font-size="10.00"> +faultClearingMode</text>
</g>
</g>
</svg>
