<?xml version="1.0" encoding="UTF-8" standalone="no"?>
<!DOCTYPE svg PUBLIC "-//W3C//DTD SVG 1.1//EN"
 "http://www.w3.org/Graphics/SVG/1.1/DTD/svg11.dtd">
<!-- Generated by graphviz version 2.43.0 (0)
 -->
<!-- Title: eFlex::SubModule::setupDutyCyclePercent Pages: 1 -->
<svg width="558pt" height="61pt"
 viewBox="0.00 0.00 558.00 61.00" xmlns="http://www.w3.org/2000/svg" xmlns:xlink="http://www.w3.org/1999/xlink">
<g id="graph0" class="graph" transform="scale(1 1) rotate(0) translate(4 57)">
<title>eFlex::SubModule::setupDutyCyclePercent</title>
<polygon fill="white" stroke="transparent" points="-4,4 -4,-57 554,-57 554,4 -4,4"/>
<!-- Node1 -->
<g id="node1" class="node">
<title>Node1</title>
<g id="a_node1"><a xlink:title="Setting the duty cycle for all channels before calling begin.">
<polygon fill="#bfbfbf" stroke="black" points="0,-22.5 0,-52.5 160,-52.5 160,-22.5 0,-22.5"/>
<text text-anchor="start" x="8" y="-40.5" font-family="Helvetica,sans-Serif" font-size="10.00">eFlex::SubModule::setupDuty</text>
<text text-anchor="middle" x="80" y="-29.5" font-family="Helvetica,sans-Serif" font-size="10.00">CyclePercent</text>
</a>
</g>
</g>
<!-- Node2 -->
<g id="node2" class="node">
<title>Node2</title>
<g id="a_node2"><a xlink:href="a00849.html#a2e9e7cd9d39447df4fd73f61d8069683" target="_top" xlink:title="Get the dutycycle value.">
<polygon fill="white" stroke="black" points="392,-22.5 392,-52.5 550,-52.5 550,-22.5 392,-22.5"/>
<text text-anchor="start" x="400" y="-40.5" font-family="Helvetica,sans-Serif" font-size="10.00">eFlex::SubModule::dutyCycle</text>
<text text-anchor="middle" x="471" y="-29.5" font-family="Helvetica,sans-Serif" font-size="10.00">Percent</text>
</a>
</g>
</g>
<!-- Node1&#45;&gt;Node2 -->
<g id="edge1" class="edge">
<title>Node1&#45;&gt;Node2</title>
<path fill="none" stroke="midnightblue" d="M160.18,-39.84C172.18,-40.11 184.42,-40.35 196,-40.5 267.11,-41.43 284.9,-41.44 356,-40.5 364.32,-40.39 372.99,-40.24 381.66,-40.05"/>
<polygon fill="midnightblue" stroke="midnightblue" points="381.9,-43.55 391.82,-39.83 381.74,-36.55 381.9,-43.55"/>
</g>
<!-- Node3 -->
<g id="node3" class="node">
<title>Node3</title>
<g id="a_node3"><a xlink:href="a00849.html#a4b7dd05bb8959643c57f81f985dcc8bc" target="_top" xlink:title="Setting the duty cycle before calling begin.">
<polygon fill="white" stroke="black" points="196,-0.5 196,-30.5 356,-30.5 356,-0.5 196,-0.5"/>
<text text-anchor="start" x="204" y="-18.5" font-family="Helvetica,sans-Serif" font-size="10.00">eFlex::SubModule::setupDuty</text>
<text text-anchor="middle" x="276" y="-7.5" font-family="Helvetica,sans-Serif" font-size="10.00">CyclePercent</text>
</a>
</g>
</g>
<!-- Node1&#45;&gt;Node3 -->
<g id="edge2" class="edge">
<title>Node1&#45;&gt;Node3</title>
<path fill="none" stroke="midnightblue" d="M160.19,-28.52C168.62,-27.56 177.24,-26.59 185.78,-25.62"/>
<polygon fill="midnightblue" stroke="midnightblue" points="186.21,-29.09 195.75,-24.49 185.42,-22.14 186.21,-29.09"/>
</g>
<!-- Node3&#45;&gt;Node2 -->
<g id="edge3" class="edge">
<title>Node3&#45;&gt;Node2</title>
<path fill="none" stroke="midnightblue" d="M356.06,-24.51C364.51,-25.48 373.15,-26.46 381.71,-27.44"/>
<polygon fill="midnightblue" stroke="midnightblue" points="381.36,-30.92 391.69,-28.57 382.15,-23.96 381.36,-30.92"/>
</g>
</g>
</svg>
