<?xml version="1.0" encoding="UTF-8" standalone="no"?>
<!DOCTYPE svg PUBLIC "-//W3C//DTD SVG 1.1//EN"
 "http://www.w3.org/Graphics/SVG/1.1/DTD/svg11.dtd">
<!-- Generated by graphviz version 2.43.0 (0)
 -->
<!-- Title: eFlex::SubModule::setupDutyCyclePercent Pages: 1 -->
<svg width="362pt" height="39pt"
 viewBox="0.00 0.00 362.00 39.00" xmlns="http://www.w3.org/2000/svg" xmlns:xlink="http://www.w3.org/1999/xlink">
<g id="graph0" class="graph" transform="scale(1 1) rotate(0) translate(4 35)">
<title>eFlex::SubModule::setupDutyCyclePercent</title>
<polygon fill="white" stroke="transparent" points="-4,4 -4,-35 358,-35 358,4 -4,4"/>
<!-- Node1 -->
<g id="node1" class="node">
<title>Node1</title>
<g id="a_node1"><a xlink:title="Setting the duty cycle before calling begin.">
<polygon fill="#bfbfbf" stroke="black" points="0,-0.5 0,-30.5 160,-30.5 160,-0.5 0,-0.5"/>
<text text-anchor="start" x="8" y="-18.5" font-family="Helvetica,sans-Serif" font-size="10.00">eFlex::SubModule::setupDuty</text>
<text text-anchor="middle" x="80" y="-7.5" font-family="Helvetica,sans-Serif" font-size="10.00">CyclePercent</text>
</a>
</g>
</g>
<!-- Node2 -->
<g id="node2" class="node">
<title>Node2</title>
<g id="a_node2"><a xlink:href="a00849.html#a2e9e7cd9d39447df4fd73f61d8069683" target="_top" xlink:title="Get the dutycycle value.">
<polygon fill="white" stroke="black" points="196,-0.5 196,-30.5 354,-30.5 354,-0.5 196,-0.5"/>
<text text-anchor="start" x="204" y="-18.5" font-family="Helvetica,sans-Serif" font-size="10.00">eFlex::SubModule::dutyCycle</text>
<text text-anchor="middle" x="275" y="-7.5" font-family="Helvetica,sans-Serif" font-size="10.00">Percent</text>
</a>
</g>
</g>
<!-- Node1&#45;&gt;Node2 -->
<g id="edge1" class="edge">
<title>Node1&#45;&gt;Node2</title>
<path fill="none" stroke="midnightblue" d="M160.06,-15.5C168.42,-15.5 176.96,-15.5 185.43,-15.5"/>
<polygon fill="midnightblue" stroke="midnightblue" points="185.69,-19 195.69,-15.5 185.69,-12 185.69,-19"/>
</g>
</g>
</svg>
