<?xml version="1.0" encoding="UTF-8" standalone="no"?>
<!DOCTYPE svg PUBLIC "-//W3C//DTD SVG 1.1//EN"
 "http://www.w3.org/Graphics/SVG/1.1/DTD/svg11.dtd">
<!-- Generated by graphviz version 2.43.0 (0)
 -->
<!-- Title: eFlex::SubModule::pwmMode Pages: 1 -->
<svg width="344pt" height="66pt"
 viewBox="0.00 0.00 344.00 66.00" xmlns="http://www.w3.org/2000/svg" xmlns:xlink="http://www.w3.org/1999/xlink">
<g id="graph0" class="graph" transform="scale(1 1) rotate(0) translate(4 62)">
<title>eFlex::SubModule::pwmMode</title>
<polygon fill="white" stroke="transparent" points="-4,4 -4,-62 340,-62 340,4 -4,4"/>
<!-- Node1 -->
<g id="node1" class="node">
<title>Node1</title>
<g id="a_node1"><a xlink:title="Current PWM signal frequency in Hz.">
<polygon fill="#bfbfbf" stroke="black" points="0,-19.5 0,-38.5 161,-38.5 161,-19.5 0,-19.5"/>
<text text-anchor="middle" x="80.5" y="-26.5" font-family="Helvetica,sans-Serif" font-size="10.00">eFlex::SubModule::pwmMode</text>
</a>
</g>
</g>
<!-- Node2 -->
<g id="node2" class="node">
<title>Node2</title>
<g id="a_node2"><a xlink:href="a00850.html#abe1035023e9b15600aead13e9aee8f9e" target="_top" xlink:title="Current configuration.">
<polygon fill="white" stroke="black" points="197,-38.5 197,-57.5 336,-57.5 336,-38.5 197,-38.5"/>
<text text-anchor="middle" x="266.5" y="-45.5" font-family="Helvetica,sans-Serif" font-size="10.00">eFlex::SubModule::config</text>
</a>
</g>
</g>
<!-- Node1&#45;&gt;Node2 -->
<g id="edge1" class="edge">
<title>Node1&#45;&gt;Node2</title>
<path fill="none" stroke="midnightblue" d="M161.13,-37.22C169.72,-38.11 178.45,-39.01 187.03,-39.9"/>
<polygon fill="midnightblue" stroke="midnightblue" points="186.69,-43.38 197,-40.93 187.41,-36.42 186.69,-43.38"/>
</g>
<!-- Node3 -->
<g id="node3" class="node">
<title>Node3</title>
<g id="a_node3"><a xlink:href="a00846.html#aedec21c9b22a2f485ba5fef4035a21e5" target="_top" xlink:title="PWM operation mode, default CenterAligned.">
<polygon fill="white" stroke="black" points="209.5,-0.5 209.5,-19.5 323.5,-19.5 323.5,-0.5 209.5,-0.5"/>
<text text-anchor="middle" x="266.5" y="-7.5" font-family="Helvetica,sans-Serif" font-size="10.00">eFlex::Config::mode</text>
</a>
</g>
</g>
<!-- Node1&#45;&gt;Node3 -->
<g id="edge2" class="edge">
<title>Node1&#45;&gt;Node3</title>
<path fill="none" stroke="midnightblue" d="M161.13,-20.78C173.81,-19.47 186.8,-18.13 199.12,-16.85"/>
<polygon fill="midnightblue" stroke="midnightblue" points="199.71,-20.31 209.3,-15.8 198.99,-13.35 199.71,-20.31"/>
</g>
</g>
</svg>
