<?xml version="1.0" encoding="UTF-8" standalone="no"?>
<!DOCTYPE svg PUBLIC "-//W3C//DTD SVG 1.1//EN"
 "http://www.w3.org/Graphics/SVG/1.1/DTD/svg11.dtd">
<!-- Generated by graphviz version 2.43.0 (0)
 -->
<!-- Title: eFlex::SubModule::pwmFrequency Pages: 1 -->
<svg width="372pt" height="66pt"
 viewBox="0.00 0.00 372.00 66.00" xmlns="http://www.w3.org/2000/svg" xmlns:xlink="http://www.w3.org/1999/xlink">
<g id="graph0" class="graph" transform="scale(1 1) rotate(0) translate(4 62)">
<title>eFlex::SubModule::pwmFrequency</title>
<polygon fill="white" stroke="transparent" points="-4,4 -4,-62 368,-62 368,4 -4,4"/>
<!-- Node1 -->
<g id="node1" class="node">
<title>Node1</title>
<g id="a_node1"><a xlink:title="Current PWM signal frequency in Hz.">
<polygon fill="#bfbfbf" stroke="black" points="0,-19.5 0,-38.5 184,-38.5 184,-19.5 0,-19.5"/>
<text text-anchor="middle" x="92" y="-26.5" font-family="Helvetica,sans-Serif" font-size="10.00">eFlex::SubModule::pwmFrequency</text>
</a>
</g>
</g>
<!-- Node2 -->
<g id="node2" class="node">
<title>Node2</title>
<g id="a_node2"><a xlink:href="a00850.html#abe1035023e9b15600aead13e9aee8f9e" target="_top" xlink:title="Current configuration.">
<polygon fill="white" stroke="black" points="222.5,-38.5 222.5,-57.5 361.5,-57.5 361.5,-38.5 222.5,-38.5"/>
<text text-anchor="middle" x="292" y="-45.5" font-family="Helvetica,sans-Serif" font-size="10.00">eFlex::SubModule::config</text>
</a>
</g>
</g>
<!-- Node1&#45;&gt;Node2 -->
<g id="edge1" class="edge">
<title>Node1&#45;&gt;Node2</title>
<path fill="none" stroke="midnightblue" d="M184.18,-37.75C193.64,-38.66 203.2,-39.58 212.51,-40.47"/>
<polygon fill="midnightblue" stroke="midnightblue" points="212.21,-43.96 222.5,-41.43 212.88,-36.99 212.21,-43.96"/>
</g>
<!-- Node3 -->
<g id="node3" class="node">
<title>Node3</title>
<g id="a_node3"><a xlink:href="a00846.html#a374cc186c604229736e1a5123df994d5" target="_top" xlink:title="PWM signal frequency in Hz, default 5000.">
<polygon fill="white" stroke="black" points="220,-0.5 220,-19.5 364,-19.5 364,-0.5 220,-0.5"/>
<text text-anchor="middle" x="292" y="-7.5" font-family="Helvetica,sans-Serif" font-size="10.00">eFlex::Config::pwmFreqHz</text>
</a>
</g>
</g>
<!-- Node1&#45;&gt;Node3 -->
<g id="edge2" class="edge">
<title>Node1&#45;&gt;Node3</title>
<path fill="none" stroke="midnightblue" d="M184.18,-20.25C192.69,-19.43 201.28,-18.61 209.7,-17.8"/>
<polygon fill="midnightblue" stroke="midnightblue" points="210.24,-21.27 219.86,-16.83 209.57,-14.3 210.24,-21.27"/>
</g>
</g>
</svg>
