<?xml version="1.0" encoding="UTF-8" standalone="no"?>
<!DOCTYPE svg PUBLIC "-//W3C//DTD SVG 1.1//EN"
 "http://www.w3.org/Graphics/SVG/1.1/DTD/svg11.dtd">
<!-- Generated by graphviz version 2.43.0 (0)
 -->
<!-- Title: eFlex::SubModule::setClockMode Pages: 1 -->
<svg width="761pt" height="116pt"
 viewBox="0.00 0.00 761.00 115.50" xmlns="http://www.w3.org/2000/svg" xmlns:xlink="http://www.w3.org/1999/xlink">
<g id="graph0" class="graph" transform="scale(1 1) rotate(0) translate(4 111.5)">
<title>eFlex::SubModule::setClockMode</title>
<polygon fill="white" stroke="transparent" points="-4,4 -4,-111.5 757,-111.5 757,4 -4,4"/>
<!-- Node1 -->
<g id="node1" class="node">
<title>Node1</title>
<g id="a_node1"><a xlink:title="Set the pwm submodule prescaler.">
<polygon fill="#bfbfbf" stroke="black" points="0,-69 0,-88 179,-88 179,-69 0,-69"/>
<text text-anchor="middle" x="89.5" y="-76" font-family="Helvetica,sans-Serif" font-size="10.00">eFlex::SubModule::setClockMode</text>
</a>
</g>
</g>
<!-- Node2 -->
<g id="node2" class="node">
<title>Node2</title>
<g id="a_node2"><a xlink:href="a00850.html#a089fcb04e377daf75cd5ec20f568df21" target="_top" xlink:title="the pwm submodule prescaler">
<polygon fill="white" stroke="black" points="421,-88 421,-107 576,-107 576,-88 421,-88"/>
<text text-anchor="middle" x="498.5" y="-95" font-family="Helvetica,sans-Serif" font-size="10.00">eFlex::SubModule::prescaler</text>
</a>
</g>
</g>
<!-- Node1&#45;&gt;Node2 -->
<g id="edge1" class="edge">
<title>Node1&#45;&gt;Node2</title>
<path fill="none" stroke="midnightblue" d="M179.06,-82.63C247.68,-85.84 342.24,-90.25 410.47,-93.44"/>
<polygon fill="midnightblue" stroke="midnightblue" points="410.61,-96.95 420.76,-93.92 410.94,-89.96 410.61,-96.95"/>
</g>
<!-- Node5 -->
<g id="node5" class="node">
<title>Node5</title>
<g id="a_node5"><a xlink:href="a00850.html#aa660277558d8f74b62535e70e9924682" target="_top" xlink:title="Set the pwm submodule prescaler.">
<polygon fill="white" stroke="black" points="215,-50 215,-69 385,-69 385,-50 215,-50"/>
<text text-anchor="middle" x="300" y="-57" font-family="Helvetica,sans-Serif" font-size="10.00">eFlex::SubModule::setPrescaler</text>
</a>
</g>
</g>
<!-- Node1&#45;&gt;Node5 -->
<g id="edge4" class="edge">
<title>Node1&#45;&gt;Node5</title>
<path fill="none" stroke="midnightblue" d="M179.23,-70.41C187.75,-69.64 196.41,-68.85 204.99,-68.07"/>
<polygon fill="midnightblue" stroke="midnightblue" points="205.35,-71.55 214.99,-67.16 204.72,-64.58 205.35,-71.55"/>
</g>
<!-- Node3 -->
<g id="node3" class="node">
<title>Node3</title>
<g id="a_node3"><a xlink:href="a00850.html#abe1035023e9b15600aead13e9aee8f9e" target="_top" xlink:title="Current configuration.">
<polygon fill="white" stroke="black" points="613,-88 613,-107 752,-107 752,-88 613,-88"/>
<text text-anchor="middle" x="682.5" y="-95" font-family="Helvetica,sans-Serif" font-size="10.00">eFlex::SubModule::config</text>
</a>
</g>
</g>
<!-- Node2&#45;&gt;Node3 -->
<g id="edge2" class="edge">
<title>Node2&#45;&gt;Node3</title>
<path fill="none" stroke="midnightblue" d="M576.16,-97.5C584.88,-97.5 593.79,-97.5 602.55,-97.5"/>
<polygon fill="midnightblue" stroke="midnightblue" points="602.74,-101 612.74,-97.5 602.74,-94 602.74,-101"/>
</g>
<!-- Node4 -->
<g id="node4" class="node">
<title>Node4</title>
<g id="a_node4"><a xlink:href="a00846.html#adba8e84d50cc44364fa225bdf6548b69" target="_top" xlink:title="Pre&#45;scaler to divide down the clock, default kPWM_Prescale_Divide_1.">
<polygon fill="white" stroke="black" points="618.5,-50 618.5,-69 746.5,-69 746.5,-50 618.5,-50"/>
<text text-anchor="middle" x="682.5" y="-57" font-family="Helvetica,sans-Serif" font-size="10.00">eFlex::Config::prescale</text>
</a>
</g>
</g>
<!-- Node2&#45;&gt;Node4 -->
<g id="edge3" class="edge">
<title>Node2&#45;&gt;Node4</title>
<path fill="none" stroke="midnightblue" d="M545.43,-87.91C569.88,-82.81 600.13,-76.49 625.9,-71.11"/>
<polygon fill="midnightblue" stroke="midnightblue" points="626.83,-74.49 635.9,-69.02 625.4,-67.64 626.83,-74.49"/>
</g>
<!-- Node5&#45;&gt;Node2 -->
<g id="edge5" class="edge">
<title>Node5&#45;&gt;Node2</title>
<path fill="none" stroke="midnightblue" d="M350.33,-69.04C376.96,-74.19 410.03,-80.58 438.07,-86.01"/>
<polygon fill="midnightblue" stroke="midnightblue" points="437.67,-89.49 448.15,-87.96 438.99,-82.62 437.67,-89.49"/>
</g>
<!-- Node6 -->
<g id="node6" class="node">
<title>Node6</title>
<g id="a_node6"><a xlink:href="a00854.html#a40dd5373e7cfc6090d2fb4be2fcfe58a" target="_top" xlink:title="Calculates the minimum PWM frequency corresponding to a prescaler.">
<polygon fill="white" stroke="black" points="428.5,-0.5 428.5,-30.5 568.5,-30.5 568.5,-0.5 428.5,-0.5"/>
<text text-anchor="start" x="436.5" y="-18.5" font-family="Helvetica,sans-Serif" font-size="10.00">eFlex::Timer::prescalerTo</text>
<text text-anchor="middle" x="498.5" y="-7.5" font-family="Helvetica,sans-Serif" font-size="10.00">MinPwmFrequency</text>
</a>
</g>
</g>
<!-- Node5&#45;&gt;Node6 -->
<g id="edge6" class="edge">
<title>Node5&#45;&gt;Node6</title>
<path fill="none" stroke="midnightblue" d="M343.64,-49.95C366.06,-44.93 394.24,-38.62 420.34,-32.78"/>
<polygon fill="midnightblue" stroke="midnightblue" points="421.23,-36.17 430.22,-30.57 419.7,-29.34 421.23,-36.17"/>
</g>
<!-- Node8 -->
<g id="node8" class="node">
<title>Node8</title>
<g id="a_node8"><a xlink:href="a00846.html#a9554c04a500b8242df75714b99fe957f" target="_top" xlink:title="Set the Pre&#45;scaler to divide down the clock.">
<polygon fill="white" stroke="black" points="427,-50 427,-69 570,-69 570,-50 427,-50"/>
<text text-anchor="middle" x="498.5" y="-57" font-family="Helvetica,sans-Serif" font-size="10.00">eFlex::Config::setPrescale</text>
</a>
</g>
</g>
<!-- Node5&#45;&gt;Node8 -->
<g id="edge8" class="edge">
<title>Node5&#45;&gt;Node8</title>
<path fill="none" stroke="midnightblue" d="M385.19,-59.5C395.58,-59.5 406.18,-59.5 416.53,-59.5"/>
<polygon fill="midnightblue" stroke="midnightblue" points="416.76,-63 426.76,-59.5 416.76,-56 416.76,-63"/>
</g>
<!-- Node7 -->
<g id="node7" class="node">
<title>Node7</title>
<g id="a_node7"><a xlink:href="a00854.html#a10e405e49abacbd9b5061693027dc052" target="_top" xlink:title="Bus clock in Hz.">
<polygon fill="white" stroke="black" points="612,-6 612,-25 753,-25 753,-6 612,-6"/>
<text text-anchor="middle" x="682.5" y="-13" font-family="Helvetica,sans-Serif" font-size="10.00">eFlex::Timer::busClockHz</text>
</a>
</g>
</g>
<!-- Node6&#45;&gt;Node7 -->
<g id="edge7" class="edge">
<title>Node6&#45;&gt;Node7</title>
<path fill="none" stroke="midnightblue" d="M568.57,-15.5C579.42,-15.5 590.72,-15.5 601.79,-15.5"/>
<polygon fill="midnightblue" stroke="midnightblue" points="601.88,-19 611.88,-15.5 601.88,-12 601.88,-19"/>
</g>
<!-- Node8&#45;&gt;Node4 -->
<g id="edge9" class="edge">
<title>Node8&#45;&gt;Node4</title>
<path fill="none" stroke="midnightblue" d="M570.13,-59.5C582.54,-59.5 595.48,-59.5 607.97,-59.5"/>
<polygon fill="midnightblue" stroke="midnightblue" points="608.33,-63 618.33,-59.5 608.33,-56 608.33,-63"/>
</g>
</g>
</svg>
