<?xml version="1.0" encoding="UTF-8" standalone="no"?>
<!DOCTYPE svg PUBLIC "-//W3C//DTD SVG 1.1//EN"
 "http://www.w3.org/Graphics/SVG/1.1/DTD/svg11.dtd">
<!-- Generated by graphviz version 2.43.0 (0)
 -->
<!-- Title: _pwm_fault_input_filter_param Pages: 1 -->
<svg width="222pt" height="193pt"
 viewBox="0.00 0.00 222.00 193.00" xmlns="http://www.w3.org/2000/svg" xmlns:xlink="http://www.w3.org/1999/xlink">
<g id="graph0" class="graph" transform="scale(1 1) rotate(0) translate(4 189)">
<title>_pwm_fault_input_filter_param</title>
<polygon fill="white" stroke="transparent" points="-4,4 -4,-189 218,-189 218,4 -4,4"/>
<!-- Node1 -->
<g id="node1" class="node">
<title>Node1</title>
<g id="a_node1"><a xlink:title="Structure for the user to configure the fault input filter.">
<polygon fill="#bfbfbf" stroke="black" points="13.5,-0.5 13.5,-68.5 144.5,-68.5 144.5,-0.5 13.5,-0.5"/>
<text text-anchor="start" x="21.5" y="-56.5" font-family="Helvetica,sans-Serif" font-size="10.00">_pwm_fault_input_filter</text>
<text text-anchor="middle" x="79" y="-45.5" font-family="Helvetica,sans-Serif" font-size="10.00">_param</text>
<polyline fill="none" stroke="black" points="13.5,-38.5 144.5,-38.5 "/>
<text text-anchor="middle" x="79" y="-26.5" font-family="Helvetica,sans-Serif" font-size="10.00"> </text>
<polyline fill="none" stroke="black" points="13.5,-19.5 144.5,-19.5 "/>
<text text-anchor="middle" x="79" y="-7.5" font-family="Helvetica,sans-Serif" font-size="10.00"> </text>
</a>
</g>
</g>
<!-- Node2 -->
<g id="node2" class="node">
<title>Node2</title>
<g id="a_node2"><a xlink:title=" ">
<polygon fill="white" stroke="#bfbfbf" points="0,-127.5 0,-184.5 38,-184.5 38,-127.5 0,-127.5"/>
<text text-anchor="middle" x="19" y="-172.5" font-family="Helvetica,sans-Serif" font-size="10.00">bool</text>
<polyline fill="none" stroke="#bfbfbf" points="0,-165.5 38,-165.5 "/>
<text text-anchor="middle" x="19" y="-153.5" font-family="Helvetica,sans-Serif" font-size="10.00"> </text>
<polyline fill="none" stroke="#bfbfbf" points="0,-146.5 38,-146.5 "/>
<text text-anchor="middle" x="19" y="-134.5" font-family="Helvetica,sans-Serif" font-size="10.00"> </text>
</a>
</g>
</g>
<!-- Node2&#45;&gt;Node1 -->
<g id="edge1" class="edge">
<title>Node2&#45;&gt;Node1</title>
<path fill="none" stroke="#404040" d="M14.4,-127.38C13.5,-114.55 14.24,-99.43 20,-87 21.4,-83.98 23.07,-81.07 24.95,-78.27"/>
<polygon fill="none" stroke="#404040" points="25.1,-78.07 25.68,-70.88 32.53,-68.65 31.96,-75.84 25.1,-78.07"/>
<text text-anchor="middle" x="68.5" y="-95.5" font-family="Helvetica,sans-Serif" font-size="10.00"> +faultGlitchStretch</text>
</g>
<!-- Node3 -->
<g id="node3" class="node">
<title>Node3</title>
<g id="a_node3"><a xlink:title=" ">
<polygon fill="white" stroke="#bfbfbf" points="114,-127.5 114,-184.5 164,-184.5 164,-127.5 114,-127.5"/>
<text text-anchor="middle" x="139" y="-172.5" font-family="Helvetica,sans-Serif" font-size="10.00">uint8_t</text>
<polyline fill="none" stroke="#bfbfbf" points="114,-165.5 164,-165.5 "/>
<text text-anchor="middle" x="139" y="-153.5" font-family="Helvetica,sans-Serif" font-size="10.00"> </text>
<polyline fill="none" stroke="#bfbfbf" points="114,-146.5 164,-146.5 "/>
<text text-anchor="middle" x="139" y="-134.5" font-family="Helvetica,sans-Serif" font-size="10.00"> </text>
</a>
</g>
</g>
<!-- Node3&#45;&gt;Node1 -->
<g id="edge2" class="edge">
<title>Node3&#45;&gt;Node1</title>
<path fill="none" stroke="#404040" d="M132.26,-127.39C128.62,-114.71 123.52,-99.69 117,-87 115.6,-84.28 114.06,-81.54 112.43,-78.83"/>
<polygon fill="none" stroke="#404040" points="112.3,-78.63 105.68,-75.77 105.78,-68.56 112.4,-71.42 112.3,-78.63"/>
<text text-anchor="middle" x="170" y="-101" font-family="Helvetica,sans-Serif" font-size="10.00"> +faultFilterCount</text>
<text text-anchor="middle" x="170" y="-90" font-family="Helvetica,sans-Serif" font-size="10.00">+faultFilterPeriod</text>
</g>
</g>
</svg>
