<?xml version="1.0" encoding="UTF-8" standalone="no"?>
<!DOCTYPE svg PUBLIC "-//W3C//DTD SVG 1.1//EN"
 "http://www.w3.org/Graphics/SVG/1.1/DTD/svg11.dtd">
<!-- Generated by graphviz version 2.43.0 (0)
 -->
<!-- Title: _pwm_input_capture_param Pages: 1 -->
<svg width="470pt" height="193pt"
 viewBox="0.00 0.00 470.00 193.00" xmlns="http://www.w3.org/2000/svg" xmlns:xlink="http://www.w3.org/1999/xlink">
<g id="graph0" class="graph" transform="scale(1 1) rotate(0) translate(4 189)">
<title>_pwm_input_capture_param</title>
<polygon fill="white" stroke="transparent" points="-4,4 -4,-189 466,-189 466,4 -4,4"/>
<!-- Node1 -->
<g id="node1" class="node">
<title>Node1</title>
<g id="a_node1"><a xlink:title="Structure is used to hold parameters to configure the capture capability of a signal pin.">
<polygon fill="#bfbfbf" stroke="black" points="162,-0.5 162,-68.5 280,-68.5 280,-0.5 162,-0.5"/>
<text text-anchor="start" x="170" y="-56.5" font-family="Helvetica,sans-Serif" font-size="10.00">_pwm_input_capture</text>
<text text-anchor="middle" x="221" y="-45.5" font-family="Helvetica,sans-Serif" font-size="10.00">_param</text>
<polyline fill="none" stroke="black" points="162,-38.5 280,-38.5 "/>
<text text-anchor="middle" x="221" y="-26.5" font-family="Helvetica,sans-Serif" font-size="10.00"> </text>
<polyline fill="none" stroke="black" points="162,-19.5 280,-19.5 "/>
<text text-anchor="middle" x="221" y="-7.5" font-family="Helvetica,sans-Serif" font-size="10.00"> </text>
</a>
</g>
</g>
<!-- Node2 -->
<g id="node2" class="node">
<title>Node2</title>
<g id="a_node2"><a xlink:title=" ">
<polygon fill="white" stroke="#bfbfbf" points="0,-127.5 0,-184.5 178,-184.5 178,-127.5 0,-127.5"/>
<text text-anchor="middle" x="89" y="-172.5" font-family="Helvetica,sans-Serif" font-size="10.00">enum _pwm_input_capture_edge</text>
<polyline fill="none" stroke="#bfbfbf" points="0,-165.5 178,-165.5 "/>
<text text-anchor="middle" x="89" y="-153.5" font-family="Helvetica,sans-Serif" font-size="10.00"> </text>
<polyline fill="none" stroke="#bfbfbf" points="0,-146.5 178,-146.5 "/>
<text text-anchor="middle" x="89" y="-134.5" font-family="Helvetica,sans-Serif" font-size="10.00"> </text>
</a>
</g>
</g>
<!-- Node2&#45;&gt;Node1 -->
<g id="edge1" class="edge">
<title>Node2&#45;&gt;Node1</title>
<path fill="none" stroke="#404040" d="M119.62,-127.28C136.16,-112.3 156.93,-93.51 175.35,-76.83"/>
<polygon fill="none" stroke="#404040" points="175.55,-76.64 177.32,-69.65 184.45,-68.59 182.69,-75.58 175.55,-76.64"/>
<text text-anchor="middle" x="183" y="-101" font-family="Helvetica,sans-Serif" font-size="10.00"> +edge0</text>
<text text-anchor="middle" x="183" y="-90" font-family="Helvetica,sans-Serif" font-size="10.00">+edge1</text>
</g>
<!-- Node3 -->
<g id="node3" class="node">
<title>Node3</title>
<g id="a_node3"><a xlink:title=" ">
<polygon fill="white" stroke="#bfbfbf" points="196,-127.5 196,-184.5 246,-184.5 246,-127.5 196,-127.5"/>
<text text-anchor="middle" x="221" y="-172.5" font-family="Helvetica,sans-Serif" font-size="10.00">uint8_t</text>
<polyline fill="none" stroke="#bfbfbf" points="196,-165.5 246,-165.5 "/>
<text text-anchor="middle" x="221" y="-153.5" font-family="Helvetica,sans-Serif" font-size="10.00"> </text>
<polyline fill="none" stroke="#bfbfbf" points="196,-146.5 246,-146.5 "/>
<text text-anchor="middle" x="221" y="-134.5" font-family="Helvetica,sans-Serif" font-size="10.00"> </text>
</a>
</g>
</g>
<!-- Node3&#45;&gt;Node1 -->
<g id="edge2" class="edge">
<title>Node3&#45;&gt;Node1</title>
<path fill="none" stroke="#404040" d="M221,-127.28C221,-113.47 221,-96.4 221,-80.75"/>
<polygon fill="none" stroke="#404040" points="221,-80.59 217,-74.59 221,-68.59 225,-74.59 221,-80.59"/>
<text text-anchor="middle" x="274.5" y="-101" font-family="Helvetica,sans-Serif" font-size="10.00"> +edgeCompareValue</text>
<text text-anchor="middle" x="274.5" y="-90" font-family="Helvetica,sans-Serif" font-size="10.00">+fifoWatermark</text>
</g>
<!-- Node4 -->
<g id="node4" class="node">
<title>Node4</title>
<g id="a_node4"><a xlink:title=" ">
<polygon fill="white" stroke="#bfbfbf" points="332,-127.5 332,-184.5 370,-184.5 370,-127.5 332,-127.5"/>
<text text-anchor="middle" x="351" y="-172.5" font-family="Helvetica,sans-Serif" font-size="10.00">bool</text>
<polyline fill="none" stroke="#bfbfbf" points="332,-165.5 370,-165.5 "/>
<text text-anchor="middle" x="351" y="-153.5" font-family="Helvetica,sans-Serif" font-size="10.00"> </text>
<polyline fill="none" stroke="#bfbfbf" points="332,-146.5 370,-146.5 "/>
<text text-anchor="middle" x="351" y="-134.5" font-family="Helvetica,sans-Serif" font-size="10.00"> </text>
</a>
</g>
</g>
<!-- Node4&#45;&gt;Node1 -->
<g id="edge3" class="edge">
<title>Node4&#45;&gt;Node1</title>
<path fill="none" stroke="#404040" d="M347.28,-127.3C344.26,-113.84 338.81,-98.2 329,-87 318.79,-75.35 305.37,-66.12 291.47,-58.88"/>
<polygon fill="none" stroke="#404040" points="291.09,-58.7 283.95,-59.7 280.27,-53.5 287.41,-52.49 291.09,-58.7"/>
<text text-anchor="middle" x="401.5" y="-101" font-family="Helvetica,sans-Serif" font-size="10.00"> +captureInputSel</text>
<text text-anchor="middle" x="401.5" y="-90" font-family="Helvetica,sans-Serif" font-size="10.00">+enableOneShotCapture</text>
</g>
</g>
</svg>
