<?xml version="1.0" encoding="UTF-8" standalone="no"?>
<!DOCTYPE svg PUBLIC "-//W3C//DTD SVG 1.1//EN"
 "http://www.w3.org/Graphics/SVG/1.1/DTD/svg11.dtd">
<!-- Generated by graphviz version 2.43.0 (0)
 -->
<!-- Title: _pwm_signal_param Pages: 1 -->
<svg width="676pt" height="171pt"
 viewBox="0.00 0.00 675.50 171.00" xmlns="http://www.w3.org/2000/svg" xmlns:xlink="http://www.w3.org/1999/xlink">
<g id="graph0" class="graph" transform="scale(1 1) rotate(0) translate(4 167)">
<title>_pwm_signal_param</title>
<polygon fill="white" stroke="transparent" points="-4,4 -4,-167 671.5,-167 671.5,4 -4,4"/>
<!-- Node1 -->
<g id="node1" class="node">
<title>Node1</title>
<g id="a_node1"><a xlink:title="Structure for the user to define the PWM signal characteristics.">
<polygon fill="#bfbfbf" stroke="black" points="266.5,-0.5 266.5,-57.5 383.5,-57.5 383.5,-0.5 266.5,-0.5"/>
<text text-anchor="middle" x="325" y="-45.5" font-family="Helvetica,sans-Serif" font-size="10.00">_pwm_signal_param</text>
<polyline fill="none" stroke="black" points="266.5,-38.5 383.5,-38.5 "/>
<text text-anchor="middle" x="325" y="-26.5" font-family="Helvetica,sans-Serif" font-size="10.00"> </text>
<polyline fill="none" stroke="black" points="266.5,-19.5 383.5,-19.5 "/>
<text text-anchor="middle" x="325" y="-7.5" font-family="Helvetica,sans-Serif" font-size="10.00"> </text>
</a>
</g>
</g>
<!-- Node2 -->
<g id="node2" class="node">
<title>Node2</title>
<g id="a_node2"><a xlink:title=" ">
<polygon fill="white" stroke="#bfbfbf" points="0,-105.5 0,-162.5 134,-162.5 134,-105.5 0,-105.5"/>
<text text-anchor="middle" x="67" y="-150.5" font-family="Helvetica,sans-Serif" font-size="10.00">enum _pwm_fault_state</text>
<polyline fill="none" stroke="#bfbfbf" points="0,-143.5 134,-143.5 "/>
<text text-anchor="middle" x="67" y="-131.5" font-family="Helvetica,sans-Serif" font-size="10.00"> </text>
<polyline fill="none" stroke="#bfbfbf" points="0,-124.5 134,-124.5 "/>
<text text-anchor="middle" x="67" y="-112.5" font-family="Helvetica,sans-Serif" font-size="10.00"> </text>
</a>
</g>
</g>
<!-- Node2&#45;&gt;Node1 -->
<g id="edge1" class="edge">
<title>Node2&#45;&gt;Node1</title>
<path fill="none" stroke="#404040" d="M92.62,-105.34C103.78,-94.75 117.6,-83.44 132,-76 169.97,-56.38 216.47,-44.97 254.31,-38.43"/>
<polygon fill="none" stroke="#404040" points="254.43,-38.41 259.7,-33.49 266.27,-36.47 261,-41.39 254.43,-38.41"/>
<text text-anchor="middle" x="162" y="-79" font-family="Helvetica,sans-Serif" font-size="10.00"> +faultState</text>
</g>
<!-- Node3 -->
<g id="node3" class="node">
<title>Node3</title>
<g id="a_node3"><a xlink:title=" ">
<polygon fill="white" stroke="#bfbfbf" points="152,-105.5 152,-162.5 208,-162.5 208,-105.5 152,-105.5"/>
<text text-anchor="middle" x="180" y="-150.5" font-family="Helvetica,sans-Serif" font-size="10.00">uint16_t</text>
<polyline fill="none" stroke="#bfbfbf" points="152,-143.5 208,-143.5 "/>
<text text-anchor="middle" x="180" y="-131.5" font-family="Helvetica,sans-Serif" font-size="10.00"> </text>
<polyline fill="none" stroke="#bfbfbf" points="152,-124.5 208,-124.5 "/>
<text text-anchor="middle" x="180" y="-112.5" font-family="Helvetica,sans-Serif" font-size="10.00"> </text>
</a>
</g>
</g>
<!-- Node3&#45;&gt;Node1 -->
<g id="edge2" class="edge">
<title>Node3&#45;&gt;Node1</title>
<path fill="none" stroke="#404040" d="M187.15,-105.37C191,-95.04 196.71,-83.91 205,-76 218.91,-62.74 237.04,-53.19 254.98,-46.36"/>
<polygon fill="none" stroke="#404040" points="255.07,-46.33 259.4,-40.57 266.39,-42.36 262.05,-48.12 255.07,-46.33"/>
<text text-anchor="middle" x="247.5" y="-79" font-family="Helvetica,sans-Serif" font-size="10.00"> +deadtimeValue</text>
</g>
<!-- Node4 -->
<g id="node4" class="node">
<title>Node4</title>
<g id="a_node4"><a xlink:title=" ">
<polygon fill="white" stroke="#bfbfbf" points="226,-105.5 226,-162.5 366,-162.5 366,-105.5 226,-105.5"/>
<text text-anchor="middle" x="296" y="-150.5" font-family="Helvetica,sans-Serif" font-size="10.00">enum _pwm_level_select</text>
<polyline fill="none" stroke="#bfbfbf" points="226,-143.5 366,-143.5 "/>
<text text-anchor="middle" x="296" y="-131.5" font-family="Helvetica,sans-Serif" font-size="10.00"> </text>
<polyline fill="none" stroke="#bfbfbf" points="226,-124.5 366,-124.5 "/>
<text text-anchor="middle" x="296" y="-112.5" font-family="Helvetica,sans-Serif" font-size="10.00"> </text>
</a>
</g>
</g>
<!-- Node4&#45;&gt;Node1 -->
<g id="edge3" class="edge">
<title>Node4&#45;&gt;Node1</title>
<path fill="none" stroke="#404040" d="M293.59,-105.31C293.52,-95.85 294.3,-85.32 297,-76 297.71,-73.54 298.59,-71.09 299.59,-68.66"/>
<polygon fill="none" stroke="#404040" points="299.73,-68.38 298.79,-61.23 305.02,-57.61 305.97,-64.76 299.73,-68.38"/>
<text text-anchor="middle" x="315" y="-79" font-family="Helvetica,sans-Serif" font-size="10.00"> +level</text>
</g>
<!-- Node5 -->
<g id="node5" class="node">
<title>Node5</title>
<g id="a_node5"><a xlink:title=" ">
<polygon fill="white" stroke="#bfbfbf" points="384,-105.5 384,-162.5 422,-162.5 422,-105.5 384,-105.5"/>
<text text-anchor="middle" x="403" y="-150.5" font-family="Helvetica,sans-Serif" font-size="10.00">bool</text>
<polyline fill="none" stroke="#bfbfbf" points="384,-143.5 422,-143.5 "/>
<text text-anchor="middle" x="403" y="-131.5" font-family="Helvetica,sans-Serif" font-size="10.00"> </text>
<polyline fill="none" stroke="#bfbfbf" points="384,-124.5 422,-124.5 "/>
<text text-anchor="middle" x="403" y="-112.5" font-family="Helvetica,sans-Serif" font-size="10.00"> </text>
</a>
</g>
</g>
<!-- Node5&#45;&gt;Node1 -->
<g id="edge4" class="edge">
<title>Node5&#45;&gt;Node1</title>
<path fill="none" stroke="#404040" d="M383.79,-113.65C380.86,-110.74 377.86,-107.78 375,-105 366.66,-96.89 363.09,-96.22 356,-87 351.6,-81.28 347.46,-74.85 343.73,-68.43"/>
<polygon fill="none" stroke="#404040" points="343.64,-68.27 337.25,-64.94 337.86,-57.75 344.25,-61.08 343.64,-68.27"/>
<text text-anchor="middle" x="409.5" y="-79" font-family="Helvetica,sans-Serif" font-size="10.00"> +pwmchannelenable</text>
</g>
<!-- Node6 -->
<g id="node6" class="node">
<title>Node6</title>
<g id="a_node6"><a xlink:title=" ">
<polygon fill="white" stroke="#bfbfbf" points="460,-105.5 460,-162.5 510,-162.5 510,-105.5 460,-105.5"/>
<text text-anchor="middle" x="485" y="-150.5" font-family="Helvetica,sans-Serif" font-size="10.00">uint8_t</text>
<polyline fill="none" stroke="#bfbfbf" points="460,-143.5 510,-143.5 "/>
<text text-anchor="middle" x="485" y="-131.5" font-family="Helvetica,sans-Serif" font-size="10.00"> </text>
<polyline fill="none" stroke="#bfbfbf" points="460,-124.5 510,-124.5 "/>
<text text-anchor="middle" x="485" y="-112.5" font-family="Helvetica,sans-Serif" font-size="10.00"> </text>
</a>
</g>
</g>
<!-- Node6&#45;&gt;Node1 -->
<g id="edge5" class="edge">
<title>Node6&#45;&gt;Node1</title>
<path fill="none" stroke="#404040" d="M479.57,-105.22C476.3,-94.87 471.13,-83.76 463,-76 444.64,-58.47 419.42,-47.62 395.56,-40.9"/>
<polygon fill="none" stroke="#404040" points="395.25,-40.82 388.44,-43.2 383.62,-37.83 390.43,-35.45 395.25,-40.82"/>
<text text-anchor="middle" x="519.5" y="-79" font-family="Helvetica,sans-Serif" font-size="10.00"> +dutyCyclePercent</text>
</g>
<!-- Node7 -->
<g id="node7" class="node">
<title>Node7</title>
<g id="a_node7"><a xlink:title=" ">
<polygon fill="white" stroke="#bfbfbf" points="542.5,-105.5 542.5,-162.5 667.5,-162.5 667.5,-105.5 542.5,-105.5"/>
<text text-anchor="middle" x="605" y="-150.5" font-family="Helvetica,sans-Serif" font-size="10.00">enum _pwm_channels</text>
<polyline fill="none" stroke="#bfbfbf" points="542.5,-143.5 667.5,-143.5 "/>
<text text-anchor="middle" x="605" y="-131.5" font-family="Helvetica,sans-Serif" font-size="10.00"> </text>
<polyline fill="none" stroke="#bfbfbf" points="542.5,-124.5 667.5,-124.5 "/>
<text text-anchor="middle" x="605" y="-112.5" font-family="Helvetica,sans-Serif" font-size="10.00"> </text>
</a>
</g>
</g>
<!-- Node7&#45;&gt;Node1 -->
<g id="edge6" class="edge">
<title>Node7&#45;&gt;Node1</title>
<path fill="none" stroke="#404040" d="M594.92,-105.31C589.67,-94.59 582.18,-83.19 572,-76 544.2,-56.36 458.47,-43.57 395.79,-36.57"/>
<polygon fill="none" stroke="#404040" points="395.52,-36.54 389.12,-39.88 383.59,-35.25 389.98,-31.92 395.52,-36.54"/>
<text text-anchor="middle" x="620" y="-79" font-family="Helvetica,sans-Serif" font-size="10.00"> +pwmChannel</text>
</g>
</g>
</svg>
