<?xml version="1.0" encoding="UTF-8" standalone="no"?>
<!DOCTYPE svg PUBLIC "-//W3C//DTD SVG 1.1//EN"
 "http://www.w3.org/Graphics/SVG/1.1/DTD/svg11.dtd">
<!-- Generated by graphviz version 2.43.0 (0)
 -->
<!-- Title: eFlex::SubModule::setPrescaler Pages: 1 -->
<svg width="546pt" height="116pt"
 viewBox="0.00 0.00 546.00 115.50" xmlns="http://www.w3.org/2000/svg" xmlns:xlink="http://www.w3.org/1999/xlink">
<g id="graph0" class="graph" transform="scale(1 1) rotate(0) translate(4 111.5)">
<title>eFlex::SubModule::setPrescaler</title>
<polygon fill="white" stroke="transparent" points="-4,4 -4,-111.5 542,-111.5 542,4 -4,4"/>
<!-- Node1 -->
<g id="node1" class="node">
<title>Node1</title>
<g id="a_node1"><a xlink:title="Set the pwm submodule prescaler.">
<polygon fill="#bfbfbf" stroke="black" points="0,-50 0,-69 170,-69 170,-50 0,-50"/>
<text text-anchor="middle" x="85" y="-57" font-family="Helvetica,sans-Serif" font-size="10.00">eFlex::SubModule::setPrescaler</text>
</a>
</g>
</g>
<!-- Node2 -->
<g id="node2" class="node">
<title>Node2</title>
<g id="a_node2"><a xlink:href="a00850.html#a089fcb04e377daf75cd5ec20f568df21" target="_top" xlink:title="the pwm submodule prescaler">
<polygon fill="white" stroke="black" points="206,-88 206,-107 361,-107 361,-88 206,-88"/>
<text text-anchor="middle" x="283.5" y="-95" font-family="Helvetica,sans-Serif" font-size="10.00">eFlex::SubModule::prescaler</text>
</a>
</g>
</g>
<!-- Node1&#45;&gt;Node2 -->
<g id="edge1" class="edge">
<title>Node1&#45;&gt;Node2</title>
<path fill="none" stroke="midnightblue" d="M135.33,-69.04C161.96,-74.19 195.03,-80.58 223.07,-86.01"/>
<polygon fill="midnightblue" stroke="midnightblue" points="222.67,-89.49 233.15,-87.96 223.99,-82.62 222.67,-89.49"/>
</g>
<!-- Node5 -->
<g id="node5" class="node">
<title>Node5</title>
<g id="a_node5"><a xlink:href="a00854.html#a40dd5373e7cfc6090d2fb4be2fcfe58a" target="_top" xlink:title="Calculates the minimum PWM frequency corresponding to a prescaler.">
<polygon fill="white" stroke="black" points="213.5,-0.5 213.5,-30.5 353.5,-30.5 353.5,-0.5 213.5,-0.5"/>
<text text-anchor="start" x="221.5" y="-18.5" font-family="Helvetica,sans-Serif" font-size="10.00">eFlex::Timer::prescalerTo</text>
<text text-anchor="middle" x="283.5" y="-7.5" font-family="Helvetica,sans-Serif" font-size="10.00">MinPwmFrequency</text>
</a>
</g>
</g>
<!-- Node1&#45;&gt;Node5 -->
<g id="edge4" class="edge">
<title>Node1&#45;&gt;Node5</title>
<path fill="none" stroke="midnightblue" d="M128.64,-49.95C151.06,-44.93 179.24,-38.62 205.34,-32.78"/>
<polygon fill="midnightblue" stroke="midnightblue" points="206.23,-36.17 215.22,-30.57 204.7,-29.34 206.23,-36.17"/>
</g>
<!-- Node7 -->
<g id="node7" class="node">
<title>Node7</title>
<g id="a_node7"><a xlink:href="a00846.html#a9554c04a500b8242df75714b99fe957f" target="_top" xlink:title="Set the Pre&#45;scaler to divide down the clock.">
<polygon fill="white" stroke="black" points="212,-50 212,-69 355,-69 355,-50 212,-50"/>
<text text-anchor="middle" x="283.5" y="-57" font-family="Helvetica,sans-Serif" font-size="10.00">eFlex::Config::setPrescale</text>
</a>
</g>
</g>
<!-- Node1&#45;&gt;Node7 -->
<g id="edge6" class="edge">
<title>Node1&#45;&gt;Node7</title>
<path fill="none" stroke="midnightblue" d="M170.19,-59.5C180.58,-59.5 191.18,-59.5 201.53,-59.5"/>
<polygon fill="midnightblue" stroke="midnightblue" points="201.76,-63 211.76,-59.5 201.76,-56 201.76,-63"/>
</g>
<!-- Node3 -->
<g id="node3" class="node">
<title>Node3</title>
<g id="a_node3"><a xlink:href="a00850.html#abe1035023e9b15600aead13e9aee8f9e" target="_top" xlink:title="Current configuration.">
<polygon fill="white" stroke="black" points="398,-88 398,-107 537,-107 537,-88 398,-88"/>
<text text-anchor="middle" x="467.5" y="-95" font-family="Helvetica,sans-Serif" font-size="10.00">eFlex::SubModule::config</text>
</a>
</g>
</g>
<!-- Node2&#45;&gt;Node3 -->
<g id="edge2" class="edge">
<title>Node2&#45;&gt;Node3</title>
<path fill="none" stroke="midnightblue" d="M361.16,-97.5C369.88,-97.5 378.79,-97.5 387.55,-97.5"/>
<polygon fill="midnightblue" stroke="midnightblue" points="387.74,-101 397.74,-97.5 387.74,-94 387.74,-101"/>
</g>
<!-- Node4 -->
<g id="node4" class="node">
<title>Node4</title>
<g id="a_node4"><a xlink:href="a00846.html#adba8e84d50cc44364fa225bdf6548b69" target="_top" xlink:title="Pre&#45;scaler to divide down the clock, default kPWM_Prescale_Divide_1.">
<polygon fill="white" stroke="black" points="403.5,-50 403.5,-69 531.5,-69 531.5,-50 403.5,-50"/>
<text text-anchor="middle" x="467.5" y="-57" font-family="Helvetica,sans-Serif" font-size="10.00">eFlex::Config::prescale</text>
</a>
</g>
</g>
<!-- Node2&#45;&gt;Node4 -->
<g id="edge3" class="edge">
<title>Node2&#45;&gt;Node4</title>
<path fill="none" stroke="midnightblue" d="M330.43,-87.91C354.88,-82.81 385.13,-76.49 410.9,-71.11"/>
<polygon fill="midnightblue" stroke="midnightblue" points="411.83,-74.49 420.9,-69.02 410.4,-67.64 411.83,-74.49"/>
</g>
<!-- Node6 -->
<g id="node6" class="node">
<title>Node6</title>
<g id="a_node6"><a xlink:href="a00854.html#a10e405e49abacbd9b5061693027dc052" target="_top" xlink:title="Bus clock in Hz.">
<polygon fill="white" stroke="black" points="397,-6 397,-25 538,-25 538,-6 397,-6"/>
<text text-anchor="middle" x="467.5" y="-13" font-family="Helvetica,sans-Serif" font-size="10.00">eFlex::Timer::busClockHz</text>
</a>
</g>
</g>
<!-- Node5&#45;&gt;Node6 -->
<g id="edge5" class="edge">
<title>Node5&#45;&gt;Node6</title>
<path fill="none" stroke="midnightblue" d="M353.57,-15.5C364.42,-15.5 375.72,-15.5 386.79,-15.5"/>
<polygon fill="midnightblue" stroke="midnightblue" points="386.88,-19 396.88,-15.5 386.88,-12 386.88,-19"/>
</g>
<!-- Node7&#45;&gt;Node4 -->
<g id="edge7" class="edge">
<title>Node7&#45;&gt;Node4</title>
<path fill="none" stroke="midnightblue" d="M355.13,-59.5C367.54,-59.5 380.48,-59.5 392.97,-59.5"/>
<polygon fill="midnightblue" stroke="midnightblue" points="393.33,-63 403.33,-59.5 393.33,-56 393.33,-63"/>
</g>
</g>
</svg>
