<?xml version="1.0" encoding="UTF-8" standalone="no"?>
<!DOCTYPE svg PUBLIC "-//W3C//DTD SVG 1.1//EN"
 "http://www.w3.org/Graphics/SVG/1.1/DTD/svg11.dtd">
<!-- Generated by graphviz version 2.43.0 (0)
 -->
<!-- Title: eFlex::SubModule::setPwmLdok Pages: 1 -->
<svg width="362pt" height="104pt"
 viewBox="0.00 0.00 362.00 104.00" xmlns="http://www.w3.org/2000/svg" xmlns:xlink="http://www.w3.org/1999/xlink">
<g id="graph0" class="graph" transform="scale(1 1) rotate(0) translate(4 100)">
<title>eFlex::SubModule::setPwmLdok</title>
<polygon fill="white" stroke="transparent" points="-4,4 -4,-100 358,-100 358,4 -4,4"/>
<!-- Node1 -->
<g id="node1" class="node">
<title>Node1</title>
<g id="a_node1"><a xlink:title="Sets or clears the PWM LDOK bit on all instantiated submodules for this timer.">
<polygon fill="#bfbfbf" stroke="black" points="0,-38.5 0,-57.5 172,-57.5 172,-38.5 0,-38.5"/>
<text text-anchor="middle" x="86" y="-45.5" font-family="Helvetica,sans-Serif" font-size="10.00">eFlex::SubModule::setPwmLdok</text>
</a>
</g>
</g>
<!-- Node2 -->
<g id="node2" class="node">
<title>Node2</title>
<g id="a_node2"><a xlink:href="a00850.html#ac4375d862ccecca93b10c1bcc57dc9f7" target="_top" xlink:title="Returns the Submodule index (0 for Submodule0...)">
<polygon fill="white" stroke="black" points="212.5,-76.5 212.5,-95.5 349.5,-95.5 349.5,-76.5 212.5,-76.5"/>
<text text-anchor="middle" x="281" y="-83.5" font-family="Helvetica,sans-Serif" font-size="10.00">eFlex::SubModule::index</text>
</a>
</g>
</g>
<!-- Node1&#45;&gt;Node2 -->
<g id="edge1" class="edge">
<title>Node1&#45;&gt;Node2</title>
<path fill="none" stroke="midnightblue" d="M135.7,-57.59C161.86,-62.74 194.28,-69.12 221.77,-74.53"/>
<polygon fill="midnightblue" stroke="midnightblue" points="221.16,-77.98 231.65,-76.48 222.51,-71.11 221.16,-77.98"/>
</g>
<!-- Node3 -->
<g id="node3" class="node">
<title>Node3</title>
<g id="a_node3"><a xlink:href="a00854.html#ac11e37725e47aa201761b956778ea875" target="_top" xlink:title="Sets or clears the PWM LDOK bit on all instantiated submodules for this timer.">
<polygon fill="white" stroke="black" points="208,-38.5 208,-57.5 354,-57.5 354,-38.5 208,-38.5"/>
<text text-anchor="middle" x="281" y="-45.5" font-family="Helvetica,sans-Serif" font-size="10.00">eFlex::Timer::setPwmLdok</text>
</a>
</g>
</g>
<!-- Node1&#45;&gt;Node3 -->
<g id="edge2" class="edge">
<title>Node1&#45;&gt;Node3</title>
<path fill="none" stroke="midnightblue" d="M172.21,-48C180.69,-48 189.27,-48 197.72,-48"/>
<polygon fill="midnightblue" stroke="midnightblue" points="197.92,-51.5 207.92,-48 197.92,-44.5 197.92,-51.5"/>
</g>
<!-- Node4 -->
<g id="node4" class="node">
<title>Node4</title>
<g id="a_node4"><a xlink:href="a00850.html#aa40c1df60470ec679779e533497c13e8" target="_top" xlink:title="Returns the parent PWM module.">
<polygon fill="white" stroke="black" points="213,-0.5 213,-19.5 349,-19.5 349,-0.5 213,-0.5"/>
<text text-anchor="middle" x="281" y="-7.5" font-family="Helvetica,sans-Serif" font-size="10.00">eFlex::SubModule::timer</text>
</a>
</g>
</g>
<!-- Node1&#45;&gt;Node4 -->
<g id="edge3" class="edge">
<title>Node1&#45;&gt;Node4</title>
<path fill="none" stroke="midnightblue" d="M135.7,-38.41C161.86,-33.26 194.28,-26.88 221.77,-21.47"/>
<polygon fill="midnightblue" stroke="midnightblue" points="222.51,-24.89 231.65,-19.52 221.16,-18.02 222.51,-24.89"/>
</g>
</g>
</svg>
