<?xml version="1.0" encoding="UTF-8" standalone="no"?>
<!DOCTYPE svg PUBLIC "-//W3C//DTD SVG 1.1//EN"
 "http://www.w3.org/Graphics/SVG/1.1/DTD/svg11.dtd">
<!-- Generated by graphviz version 2.43.0 (0)
 -->
<!-- Title: _pwm_config Pages: 1 -->
<!--zoomable 193 -->
<svg id="main" version="1.1" xmlns="http://www.w3.org/2000/svg" xmlns:xlink="http://www.w3.org/1999/xlink" xml:space="preserve" onload="init(evt)">
<style type="text/css"><![CDATA[
.edge:hover path { stroke: red; }
.edge:hover polygon { stroke: red; fill: red; }
]]></style>
<script type="text/javascript"><![CDATA[
var edges = document.getElementsByTagName('g');
if (edges && edges.length) {
  for (var i=0;i<edges.length;i++) {
    if (edges[i].id.substr(0,4)=='edge') {
      edges[i].setAttribute('class','edge');
    }
  }
}
]]></script>
        <defs>
                <circle id="rim" cx="0" cy="0" r="7"/>
                <circle id="rim2" cx="0" cy="0" r="3.5"/>
                <g id="zoomPlus">
                        <use xlink:href="#rim" fill="#404040">
                                <set attributeName="fill" to="#808080" begin="zoomplus.mouseover" end="zoomplus.mouseout"/>
                        </use>
                        <path d="M-4,0h8M0,-4v8" fill="none" stroke="white" stroke-width="1.5" pointer-events="none"/>
                </g>
                <g id="zoomMin">
                        <use xlink:href="#rim" fill="#404040">
                                <set attributeName="fill" to="#808080" begin="zoomminus.mouseover" end="zoomminus.mouseout"/>
                        </use>
                        <path d="M-4,0h8" fill="none" stroke="white" stroke-width="1.5" pointer-events="none"/>
                </g>
                <g id="dirArrow">
                        <path fill="none" stroke="white" stroke-width="1.5" d="M0,-3.0v7 M-2.5,-0.5L0,-3.0L2.5,-0.5"/>
                </g>
               <g id="resetDef">
                       <use xlink:href="#rim2" fill="#404040">
                               <set attributeName="fill" to="#808080" begin="reset.mouseover" end="reset.mouseout"/>
                       </use>
               </g>
        </defs>

<script type="text/javascript">
var viewWidth = 1322;
var viewHeight = 193;
var sectionId = 'dynsection-0';
</script>
<script xlink:href="svgpan.js"/>
<svg id="graph" class="graph">
<g id="viewport">
<title>_pwm_config</title>
<polygon fill="white" stroke="transparent" points="-4,4 -4,-189 1317.5,-189 1317.5,4 -4,4"/>
<!-- Node1 -->
<g id="node1" class="node">
<title>Node1</title>
<g id="a_node1"><a xlink:title="PWM config structure.">
<polygon fill="#bfbfbf" stroke="black" points="606.5,-0.5 606.5,-57.5 686.5,-57.5 686.5,-0.5 606.5,-0.5"/>
<text text-anchor="middle" x="646.5" y="-45.5" font-family="Helvetica,sans-Serif" font-size="10.00">_pwm_config</text>
<polyline fill="none" stroke="black" points="606.5,-38.5 686.5,-38.5 "/>
<text text-anchor="middle" x="646.5" y="-26.5" font-family="Helvetica,sans-Serif" font-size="10.00"> </text>
<polyline fill="none" stroke="black" points="606.5,-19.5 686.5,-19.5 "/>
<text text-anchor="middle" x="646.5" y="-7.5" font-family="Helvetica,sans-Serif" font-size="10.00"> </text>
</a>
</g>
</g>
<!-- Node2 -->
<g id="node2" class="node">
<title>Node2</title>
<g id="a_node2"><a xlink:title=" ">
<polygon fill="white" stroke="#bfbfbf" points="0,-122 0,-179 145,-179 145,-122 0,-122"/>
<text text-anchor="middle" x="72.5" y="-167" font-family="Helvetica,sans-Serif" font-size="10.00">enum _pwm_clock_source</text>
<polyline fill="none" stroke="#bfbfbf" points="0,-160 145,-160 "/>
<text text-anchor="middle" x="72.5" y="-148" font-family="Helvetica,sans-Serif" font-size="10.00"> </text>
<polyline fill="none" stroke="#bfbfbf" points="0,-141 145,-141 "/>
<text text-anchor="middle" x="72.5" y="-129" font-family="Helvetica,sans-Serif" font-size="10.00"> </text>
</a>
</g>
</g>
<!-- Node2&#45;&gt;Node1 -->
<g id="edge1" class="edge">
<title>Node2&#45;&gt;Node1</title>
<path fill="none" stroke="#404040" d="M122.72,-121.91C154.2,-105.89 196.13,-86.79 235.5,-76 361.21,-41.54 515.31,-32.82 594.32,-30.67"/>
<polygon fill="none" stroke="#404040" points="594.34,-30.67 600.24,-26.52 606.34,-30.37 600.44,-34.52 594.34,-30.67"/>
<text text-anchor="middle" x="270.5" y="-84.5" font-family="Helvetica,sans-Serif" font-size="10.00"> +clockSource</text>
</g>
<!-- Node3 -->
<g id="node3" class="node">
<title>Node3</title>
<g id="a_node3"><a xlink:title=" ">
<polygon fill="white" stroke="#bfbfbf" points="163,-116.5 163,-184.5 306,-184.5 306,-116.5 163,-116.5"/>
<text text-anchor="start" x="171" y="-172.5" font-family="Helvetica,sans-Serif" font-size="10.00">enum _pwm_force_output</text>
<text text-anchor="middle" x="234.5" y="-161.5" font-family="Helvetica,sans-Serif" font-size="10.00">_trigger</text>
<polyline fill="none" stroke="#bfbfbf" points="163,-154.5 306,-154.5 "/>
<text text-anchor="middle" x="234.5" y="-142.5" font-family="Helvetica,sans-Serif" font-size="10.00"> </text>
<polyline fill="none" stroke="#bfbfbf" points="163,-135.5 306,-135.5 "/>
<text text-anchor="middle" x="234.5" y="-123.5" font-family="Helvetica,sans-Serif" font-size="10.00"> </text>
</a>
</g>
</g>
<!-- Node3&#45;&gt;Node1 -->
<g id="edge2" class="edge">
<title>Node3&#45;&gt;Node1</title>
<path fill="none" stroke="#404040" d="M278.64,-116.37C300.17,-101.79 327.08,-85.78 353.5,-76 434.2,-46.13 534.39,-35.66 594.25,-31.98"/>
<polygon fill="none" stroke="#404040" points="594.4,-31.97 600.17,-27.64 606.38,-31.3 600.62,-35.63 594.4,-31.97"/>
<text text-anchor="middle" x="388.5" y="-84.5" font-family="Helvetica,sans-Serif" font-size="10.00"> +forceTrigger</text>
</g>
<!-- Node4 -->
<g id="node4" class="node">
<title>Node4</title>
<g id="a_node4"><a xlink:title=" ">
<polygon fill="white" stroke="#bfbfbf" points="324.5,-122 324.5,-179 478.5,-179 478.5,-122 324.5,-122"/>
<text text-anchor="middle" x="401.5" y="-167" font-family="Helvetica,sans-Serif" font-size="10.00">enum _pwm_clock_prescale</text>
<polyline fill="none" stroke="#bfbfbf" points="324.5,-160 478.5,-160 "/>
<text text-anchor="middle" x="401.5" y="-148" font-family="Helvetica,sans-Serif" font-size="10.00"> </text>
<polyline fill="none" stroke="#bfbfbf" points="324.5,-141 478.5,-141 "/>
<text text-anchor="middle" x="401.5" y="-129" font-family="Helvetica,sans-Serif" font-size="10.00"> </text>
</a>
</g>
</g>
<!-- Node4&#45;&gt;Node1 -->
<g id="edge3" class="edge">
<title>Node4&#45;&gt;Node1</title>
<path fill="none" stroke="#404040" d="M413.14,-121.87C421.15,-106.14 433.27,-87.36 449.5,-76 492.31,-46.02 551.92,-35.35 594.33,-31.67"/>
<polygon fill="none" stroke="#404040" points="594.38,-31.67 600.07,-27.23 606.35,-30.78 600.67,-35.21 594.38,-31.67"/>
<text text-anchor="middle" x="476" y="-84.5" font-family="Helvetica,sans-Serif" font-size="10.00"> +prescale</text>
</g>
<!-- Node5 -->
<g id="node5" class="node">
<title>Node5</title>
<g id="a_node5"><a xlink:title=" ">
<polygon fill="white" stroke="#bfbfbf" points="496.5,-122 496.5,-179 534.5,-179 534.5,-122 496.5,-122"/>
<text text-anchor="middle" x="515.5" y="-167" font-family="Helvetica,sans-Serif" font-size="10.00">bool</text>
<polyline fill="none" stroke="#bfbfbf" points="496.5,-160 534.5,-160 "/>
<text text-anchor="middle" x="515.5" y="-148" font-family="Helvetica,sans-Serif" font-size="10.00"> </text>
<polyline fill="none" stroke="#bfbfbf" points="496.5,-141 534.5,-141 "/>
<text text-anchor="middle" x="515.5" y="-129" font-family="Helvetica,sans-Serif" font-size="10.00"> </text>
</a>
</g>
</g>
<!-- Node5&#45;&gt;Node1 -->
<g id="edge4" class="edge">
<title>Node5&#45;&gt;Node1</title>
<path fill="none" stroke="#404040" d="M507.72,-121.67C505.28,-106.83 505.26,-89 514.5,-76 532.58,-50.55 565.81,-39.07 594.41,-33.93"/>
<polygon fill="none" stroke="#404040" points="594.46,-33.92 599.79,-29.06 606.32,-32.1 601,-36.97 594.46,-33.92"/>
<text text-anchor="middle" x="568.5" y="-90" font-family="Helvetica,sans-Serif" font-size="10.00"> +debugModeEnabled</text>
<text text-anchor="middle" x="568.5" y="-79" font-family="Helvetica,sans-Serif" font-size="10.00">+enableWait</text>
</g>
<!-- Node6 -->
<g id="node6" class="node">
<title>Node6</title>
<g id="a_node6"><a xlink:title=" ">
<polygon fill="white" stroke="#bfbfbf" points="553,-116.5 553,-184.5 672,-184.5 672,-116.5 553,-116.5"/>
<text text-anchor="start" x="561" y="-172.5" font-family="Helvetica,sans-Serif" font-size="10.00">enum _pwm_register</text>
<text text-anchor="middle" x="612.5" y="-161.5" font-family="Helvetica,sans-Serif" font-size="10.00">_reload</text>
<polyline fill="none" stroke="#bfbfbf" points="553,-154.5 672,-154.5 "/>
<text text-anchor="middle" x="612.5" y="-142.5" font-family="Helvetica,sans-Serif" font-size="10.00"> </text>
<polyline fill="none" stroke="#bfbfbf" points="553,-135.5 672,-135.5 "/>
<text text-anchor="middle" x="612.5" y="-123.5" font-family="Helvetica,sans-Serif" font-size="10.00"> </text>
</a>
</g>
</g>
<!-- Node6&#45;&gt;Node1 -->
<g id="edge5" class="edge">
<title>Node6&#45;&gt;Node1</title>
<path fill="none" stroke="#404040" d="M621.97,-116.21C626.1,-101.72 630.96,-84.62 635.27,-69.49"/>
<polygon fill="none" stroke="#404040" points="635.29,-69.4 633.08,-62.54 638.57,-57.86 640.78,-64.73 635.29,-69.4"/>
<text text-anchor="middle" x="666.5" y="-84.5" font-family="Helvetica,sans-Serif" font-size="10.00"> +reloadLogic</text>
</g>
<!-- Node7 -->
<g id="node7" class="node">
<title>Node7</title>
<g id="a_node7"><a xlink:title=" ">
<polygon fill="white" stroke="#bfbfbf" points="690,-122 690,-179 825,-179 825,-122 690,-122"/>
<text text-anchor="middle" x="757.5" y="-167" font-family="Helvetica,sans-Serif" font-size="10.00">enum _pwm_init_source</text>
<polyline fill="none" stroke="#bfbfbf" points="690,-160 825,-160 "/>
<text text-anchor="middle" x="757.5" y="-148" font-family="Helvetica,sans-Serif" font-size="10.00"> </text>
<polyline fill="none" stroke="#bfbfbf" points="690,-141 825,-141 "/>
<text text-anchor="middle" x="757.5" y="-129" font-family="Helvetica,sans-Serif" font-size="10.00"> </text>
</a>
</g>
</g>
<!-- Node7&#45;&gt;Node1 -->
<g id="edge6" class="edge">
<title>Node7&#45;&gt;Node1</title>
<path fill="none" stroke="#404040" d="M740.27,-121.93C730.62,-107.51 717.87,-89.99 704.5,-76 701.05,-72.39 697.32,-68.82 693.46,-65.36"/>
<polygon fill="none" stroke="#404040" points="693.43,-65.33 686.27,-64.46 684.33,-57.51 691.48,-58.39 693.43,-65.33"/>
<text text-anchor="middle" x="775.5" y="-84.5" font-family="Helvetica,sans-Serif" font-size="10.00"> +initializationControl</text>
</g>
<!-- Node8 -->
<g id="node8" class="node">
<title>Node8</title>
<g id="a_node8"><a xlink:title=" ">
<polygon fill="white" stroke="#bfbfbf" points="843.5,-116.5 843.5,-184.5 969.5,-184.5 969.5,-116.5 843.5,-116.5"/>
<text text-anchor="start" x="851.5" y="-172.5" font-family="Helvetica,sans-Serif" font-size="10.00">enum _pwm_chnl_pair</text>
<text text-anchor="middle" x="906.5" y="-161.5" font-family="Helvetica,sans-Serif" font-size="10.00">_operation</text>
<polyline fill="none" stroke="#bfbfbf" points="843.5,-154.5 969.5,-154.5 "/>
<text text-anchor="middle" x="906.5" y="-142.5" font-family="Helvetica,sans-Serif" font-size="10.00"> </text>
<polyline fill="none" stroke="#bfbfbf" points="843.5,-135.5 969.5,-135.5 "/>
<text text-anchor="middle" x="906.5" y="-123.5" font-family="Helvetica,sans-Serif" font-size="10.00"> </text>
</a>
</g>
</g>
<!-- Node8&#45;&gt;Node1 -->
<g id="edge7" class="edge">
<title>Node8&#45;&gt;Node1</title>
<path fill="none" stroke="#404040" d="M880.84,-116.44C868.06,-102.05 851.5,-86.19 833.5,-76 791.66,-52.32 737.83,-40.73 698.68,-35.12"/>
<polygon fill="none" stroke="#404040" points="698.67,-35.12 692.19,-38.29 686.77,-33.53 693.25,-30.36 698.67,-35.12"/>
<text text-anchor="middle" x="900" y="-84.5" font-family="Helvetica,sans-Serif" font-size="10.00"> +pairOperation</text>
</g>
<!-- Node9 -->
<g id="node9" class="node">
<title>Node9</title>
<g id="a_node9"><a xlink:title=" ">
<polygon fill="white" stroke="#bfbfbf" points="988,-122 988,-179 1145,-179 1145,-122 988,-122"/>
<text text-anchor="middle" x="1066.5" y="-167" font-family="Helvetica,sans-Serif" font-size="10.00">enum _pwm_load_frequency</text>
<polyline fill="none" stroke="#bfbfbf" points="988,-160 1145,-160 "/>
<text text-anchor="middle" x="1066.5" y="-148" font-family="Helvetica,sans-Serif" font-size="10.00"> </text>
<polyline fill="none" stroke="#bfbfbf" points="988,-141 1145,-141 "/>
<text text-anchor="middle" x="1066.5" y="-129" font-family="Helvetica,sans-Serif" font-size="10.00"> </text>
</a>
</g>
</g>
<!-- Node9&#45;&gt;Node1 -->
<g id="edge8" class="edge">
<title>Node9&#45;&gt;Node1</title>
<path fill="none" stroke="#404040" d="M1029.09,-121.95C1005.64,-106.04 974.16,-87.06 943.5,-76 861.25,-46.33 759.41,-35.8 698.88,-32.06"/>
<polygon fill="none" stroke="#404040" points="698.59,-32.04 692.37,-35.69 686.61,-31.36 692.83,-27.7 698.59,-32.04"/>
<text text-anchor="middle" x="1036" y="-84.5" font-family="Helvetica,sans-Serif" font-size="10.00"> +reloadFrequency</text>
</g>
<!-- Node10 -->
<g id="node10" class="node">
<title>Node10</title>
<g id="a_node10"><a xlink:title=" ">
<polygon fill="white" stroke="#bfbfbf" points="1163.5,-116.5 1163.5,-184.5 1313.5,-184.5 1313.5,-116.5 1163.5,-116.5"/>
<text text-anchor="start" x="1171.5" y="-172.5" font-family="Helvetica,sans-Serif" font-size="10.00">enum _pwm_reload_source</text>
<text text-anchor="middle" x="1238.5" y="-161.5" font-family="Helvetica,sans-Serif" font-size="10.00">_select</text>
<polyline fill="none" stroke="#bfbfbf" points="1163.5,-154.5 1313.5,-154.5 "/>
<text text-anchor="middle" x="1238.5" y="-142.5" font-family="Helvetica,sans-Serif" font-size="10.00"> </text>
<polyline fill="none" stroke="#bfbfbf" points="1163.5,-135.5 1313.5,-135.5 "/>
<text text-anchor="middle" x="1238.5" y="-123.5" font-family="Helvetica,sans-Serif" font-size="10.00"> </text>
</a>
</g>
</g>
<!-- Node10&#45;&gt;Node1 -->
<g id="edge9" class="edge">
<title>Node10&#45;&gt;Node1</title>
<path fill="none" stroke="#404040" d="M1181.9,-116.33C1154.07,-101.55 1119.49,-85.39 1086.5,-76 950.36,-37.25 782.21,-30.45 698.69,-29.69"/>
<polygon fill="none" stroke="#404040" points="698.51,-29.68 692.48,-33.65 686.51,-29.61 692.53,-25.65 698.51,-29.68"/>
<text text-anchor="middle" x="1179" y="-84.5" font-family="Helvetica,sans-Serif" font-size="10.00"> +reloadSelect</text>
</g>
</g>
</svg>
        <g id="navigator" transform="translate(0 0)" fill="#404254">
                <rect fill="#f2f5e9" fill-opacity="0.5" stroke="#606060" stroke-width=".5" x="0" y="0" width="60" height="60"/>
                <use id="zoomplus" xlink:href="#zoomPlus" x="17" y="9" onmousedown="handleZoom(evt,'in')"/>
                <use id="zoomminus" xlink:href="#zoomMin" x="42" y="9" onmousedown="handleZoom(evt,'out')"/>
                <use id="reset" xlink:href="#resetDef" x="30" y="36" onmousedown="handleReset()"/>
                <g id="arrowUp" xlink:href="#dirArrow" transform="translate(30 24)" onmousedown="handlePan(0,-1)">
                  <use xlink:href="#rim" fill="#404040">
                        <set attributeName="fill" to="#808080" begin="arrowUp.mouseover" end="arrowUp.mouseout"/>
                  </use>
                  <path fill="none" stroke="white" stroke-width="1.5" d="M0,-3.0v7 M-2.5,-0.5L0,-3.0L2.5,-0.5"/>
                </g>
                <g id="arrowRight" xlink:href="#dirArrow" transform="rotate(90) translate(36 -43)" onmousedown="handlePan(1,0)">
                  <use xlink:href="#rim" fill="#404040">
                        <set attributeName="fill" to="#808080" begin="arrowRight.mouseover" end="arrowRight.mouseout"/>
                  </use>
                  <path fill="none" stroke="white" stroke-width="1.5" d="M0,-3.0v7 M-2.5,-0.5L0,-3.0L2.5,-0.5"/>
                </g>
                <g id="arrowDown" xlink:href="#dirArrow" transform="rotate(180) translate(-30 -48)" onmousedown="handlePan(0,1)">
                  <use xlink:href="#rim" fill="#404040">
                        <set attributeName="fill" to="#808080" begin="arrowDown.mouseover" end="arrowDown.mouseout"/>
                  </use>
                  <path fill="none" stroke="white" stroke-width="1.5" d="M0,-3.0v7 M-2.5,-0.5L0,-3.0L2.5,-0.5"/>
                </g>
                <g id="arrowLeft" xlink:href="#dirArrow" transform="rotate(270) translate(-36 17)" onmousedown="handlePan(-1,0)">
                  <use xlink:href="#rim" fill="#404040">
                        <set attributeName="fill" to="#808080" begin="arrowLeft.mouseover" end="arrowLeft.mouseout"/>
                  </use>
                  <path fill="none" stroke="white" stroke-width="1.5" d="M0,-3.0v7 M-2.5,-0.5L0,-3.0L2.5,-0.5"/>
                </g>
        </g>
        <svg viewBox="0 0 15 15" width="100%" height="30px" preserveAspectRatio="xMaxYMin meet">
         <g id="arrow_out" transform="scale(0.3 0.3)">
          <a xlink:href="a00859_org.svg" target="_base">
           <rect id="button" ry="5" rx="5" y="6" x="6" height="38" width="38"
                fill="#f2f5e9" fill-opacity="0.5" stroke="#606060" stroke-width="1.0"/>
           <path id="arrow"
             d="M 11.500037,31.436501 C 11.940474,20.09759 22.043105,11.32322 32.158766,21.979434 L 37.068811,17.246167 C 37.068811,17.246167 37.088388,32 37.088388,32 L 22.160133,31.978069 C 22.160133,31.978069 26.997745,27.140456 26.997745,27.140456 C 18.528582,18.264221 13.291696,25.230495 11.500037,31.436501 z"
             style="fill:#404040;"/>
          </a>
         </g>
        </svg>
</svg>
